<?xml version="1.0" encoding="utf-8" standalone="no"?>
<!DOCTYPE svg PUBLIC "-//W3C//DTD SVG 1.1//EN"
  "http://www.w3.org/Graphics/SVG/1.1/DTD/svg11.dtd">
<svg xmlns:xlink="http://www.w3.org/1999/xlink" width="864pt" height="360pt" viewBox="0 0 864 360" xmlns="http://www.w3.org/2000/svg" version="1.1">
 <metadata>
  <rdf:RDF xmlns:dc="http://purl.org/dc/elements/1.1/" xmlns:cc="http://creativecommons.org/ns#" xmlns:rdf="http://www.w3.org/1999/02/22-rdf-syntax-ns#">
   <cc:Work>
    <dc:type rdf:resource="http://purl.org/dc/dcmitype/StillImage"/>
    <dc:date>2025-07-10T17:02:54.772449</dc:date>
    <dc:format>image/svg+xml</dc:format>
    <dc:creator>
     <cc:Agent>
      <dc:title>Matplotlib v3.10.1, https://matplotlib.org/</dc:title>
     </cc:Agent>
    </dc:creator>
   </cc:Work>
  </rdf:RDF>
 </metadata>
 <defs>
  <style type="text/css">*{stroke-linejoin: round; stroke-linecap: butt}</style>
 </defs>
 <g id="figure_1">
  <g id="patch_1">
   <path d="M 0 360 
L 864 360 
L 864 0 
L 0 0 
z
" style="fill: #ffffff"/>
  </g>
  <g id="axes_1">
   <g id="patch_2">
    <path d="M 8.64 238.753442 
L 777.6 238.753442 
L 777.6 36 
L 8.64 36 
z
" style="fill: #ffffff"/>
   </g>
   <g id="patch_3">
    <path d="M 85.52575 63.90185 
L 85.52575 75.06259 
L 404.369073 75.06259 
L 404.369073 63.90185 
L 85.52575 63.90185 
z
" clip-path="url(#p28a79ac068)" style="fill: none; stroke: #a9a9a9; stroke-width: 0.5; stroke-linejoin: miter"/>
   </g>
   <g id="patch_4">
    <path d="M 404.369073 63.90185 
L 417.18533 69.48222 
L 404.369073 75.06259 
L 404.369073 63.90185 
z
" clip-path="url(#p28a79ac068)" style="fill: none; stroke: #a9a9a9; stroke-width: 0.5; stroke-linejoin: miter"/>
   </g>
   <g id="patch_5">
    <path d="M 436.040724 108.544809 
L 436.040724 119.705549 
L 437.065696 119.705549 
L 437.065696 108.544809 
L 436.040724 108.544809 
z
" clip-path="url(#p28a79ac068)" style="fill: none; stroke: #a9a9a9; stroke-width: 0.5; stroke-linejoin: miter"/>
   </g>
   <g id="patch_6">
    <path d="M 437.065696 108.544809 
L 449.881953 114.125179 
L 437.065696 119.705549 
L 437.065696 108.544809 
z
" clip-path="url(#p28a79ac068)" style="fill: none; stroke: #a9a9a9; stroke-width: 0.5; stroke-linejoin: miter"/>
   </g>
   <g id="patch_7">
    <path d="M 452.7734 153.187769 
L 452.7734 164.348509 
L 700.71425 164.348509 
L 700.71425 153.187769 
L 452.7734 153.187769 
z
" clip-path="url(#p28a79ac068)" style="fill: none; stroke: #a9a9a9; stroke-width: 0.5; stroke-linejoin: miter"/>
   </g>
   <g id="patch_8">
    <path d="M 700.71425 153.187769 
L 713.530506 158.768139 
L 700.71425 164.348509 
L 700.71425 153.187769 
z
" clip-path="url(#p28a79ac068)" style="fill: none; stroke: #a9a9a9; stroke-width: 0.5; stroke-linejoin: miter"/>
   </g>
   <g id="patch_9">
    <path d="M 72.713594 222.012332 
L 72.713594 226.476628 
L 106.345504 226.476628 
L 106.345504 222.012332 
z
" clip-path="url(#p28a79ac068)" style="fill: #add8e6; stroke: #add8e6; stroke-width: 0.25; stroke-linejoin: miter"/>
   </g>
   <g id="patch_10">
    <path d="M 336.528705 222.012332 
L 336.528705 226.476628 
L 508.50628 226.476628 
L 508.50628 222.012332 
z
" clip-path="url(#p28a79ac068)" style="fill: #add8e6; stroke: #add8e6; stroke-width: 0.25; stroke-linejoin: miter"/>
   </g>
   <g id="patch_11">
    <path d="M 140.656459 206.387296 
L 140.656459 210.851592 
L 219.09248 210.851592 
L 219.09248 206.387296 
z
" clip-path="url(#p28a79ac068)" style="fill: #add8e6; stroke: #add8e6; stroke-width: 0.25; stroke-linejoin: miter"/>
   </g>
   <g id="patch_12">
    <path d="M 87.268204 190.76226 
L 87.268204 195.226556 
L 89.254088 195.226556 
L 89.254088 190.76226 
z
" clip-path="url(#p28a79ac068)" style="fill: #add8e6; stroke: #add8e6; stroke-width: 0.25; stroke-linejoin: miter"/>
   </g>
   <g id="patch_13">
    <path d="M 102.860598 190.76226 
L 102.860598 195.226556 
L 106.191758 195.226556 
L 106.191758 190.76226 
z
" clip-path="url(#p28a79ac068)" style="fill: #add8e6; stroke: #add8e6; stroke-width: 0.25; stroke-linejoin: miter"/>
   </g>
   <g id="patch_14">
    <path d="M 105.756145 190.76226 
L 105.756145 195.226556 
L 106.255819 195.226556 
L 106.255819 190.76226 
z
" clip-path="url(#p28a79ac068)" style="fill: #add8e6; stroke: #add8e6; stroke-width: 0.25; stroke-linejoin: miter"/>
   </g>
   <g id="patch_15">
    <path d="M 110.2404 190.76226 
L 110.2404 195.226556 
L 112.02129 195.226556 
L 112.02129 190.76226 
z
" clip-path="url(#p28a79ac068)" style="fill: #add8e6; stroke: #add8e6; stroke-width: 0.25; stroke-linejoin: miter"/>
   </g>
   <g id="patch_16">
    <path d="M 112.367218 190.76226 
L 112.367218 195.226556 
L 117.658638 195.226556 
L 117.658638 190.76226 
z
" clip-path="url(#p28a79ac068)" style="fill: #add8e6; stroke: #add8e6; stroke-width: 0.25; stroke-linejoin: miter"/>
   </g>
   <g id="patch_17">
    <path d="M 118.337683 190.76226 
L 118.337683 195.226556 
L 120.387628 195.226556 
L 120.387628 190.76226 
z
" clip-path="url(#p28a79ac068)" style="fill: #add8e6; stroke: #add8e6; stroke-width: 0.25; stroke-linejoin: miter"/>
   </g>
   <g id="patch_18">
    <path d="M 125.948104 190.76226 
L 125.948104 195.226556 
L 128.77959 195.226556 
L 128.77959 190.76226 
z
" clip-path="url(#p28a79ac068)" style="fill: #add8e6; stroke: #add8e6; stroke-width: 0.25; stroke-linejoin: miter"/>
   </g>
   <g id="patch_19">
    <path d="M 129.368949 190.76226 
L 129.368949 195.226556 
L 133.110099 195.226556 
L 133.110099 190.76226 
z
" clip-path="url(#p28a79ac068)" style="fill: #add8e6; stroke: #add8e6; stroke-width: 0.25; stroke-linejoin: miter"/>
   </g>
   <g id="patch_20">
    <path d="M 136.748751 190.76226 
L 136.748751 195.226556 
L 140.374592 195.226556 
L 140.374592 190.76226 
z
" clip-path="url(#p28a79ac068)" style="fill: #add8e6; stroke: #add8e6; stroke-width: 0.25; stroke-linejoin: miter"/>
   </g>
   <g id="patch_21">
    <path d="M 140.374592 190.76226 
L 140.374592 195.226556 
L 140.592398 195.226556 
L 140.592398 190.76226 
z
" clip-path="url(#p28a79ac068)" style="fill: #add8e6; stroke: #add8e6; stroke-width: 0.25; stroke-linejoin: miter"/>
   </g>
   <g id="patch_22">
    <path d="M 140.656459 190.76226 
L 140.656459 195.226556 
L 219.09248 195.226556 
L 219.09248 190.76226 
z
" clip-path="url(#p28a79ac068)" style="fill: #add8e6; stroke: #add8e6; stroke-width: 0.25; stroke-linejoin: miter"/>
   </g>
   <g id="patch_23">
    <path d="M 220.194326 190.76226 
L 220.194326 195.226556 
L 223.397365 195.226556 
L 223.397365 190.76226 
z
" clip-path="url(#p28a79ac068)" style="fill: #add8e6; stroke: #add8e6; stroke-width: 0.25; stroke-linejoin: miter"/>
   </g>
   <g id="patch_24">
    <path d="M 223.397365 190.76226 
L 223.397365 195.226556 
L 228.727222 195.226556 
L 228.727222 190.76226 
z
" clip-path="url(#p28a79ac068)" style="fill: #add8e6; stroke: #add8e6; stroke-width: 0.25; stroke-linejoin: miter"/>
   </g>
   <g id="patch_25">
    <path d="M 228.727222 190.76226 
L 228.727222 195.226556 
L 230.584985 195.226556 
L 230.584985 190.76226 
z
" clip-path="url(#p28a79ac068)" style="fill: #add8e6; stroke: #add8e6; stroke-width: 0.25; stroke-linejoin: miter"/>
   </g>
   <g id="patch_26">
    <path d="M 233.685526 190.76226 
L 233.685526 195.226556 
L 234.582377 195.226556 
L 234.582377 190.76226 
z
" clip-path="url(#p28a79ac068)" style="fill: #add8e6; stroke: #add8e6; stroke-width: 0.25; stroke-linejoin: miter"/>
   </g>
   <g id="patch_27">
    <path d="M 236.529825 190.76226 
L 236.529825 195.226556 
L 241.539378 195.226556 
L 241.539378 190.76226 
z
" clip-path="url(#p28a79ac068)" style="fill: #add8e6; stroke: #add8e6; stroke-width: 0.25; stroke-linejoin: miter"/>
   </g>
   <g id="patch_28">
    <path d="M 242.487478 190.76226 
L 242.487478 195.226556 
L 244.050561 195.226556 
L 244.050561 190.76226 
z
" clip-path="url(#p28a79ac068)" style="fill: #add8e6; stroke: #add8e6; stroke-width: 0.25; stroke-linejoin: miter"/>
   </g>
   <g id="patch_29">
    <path d="M 244.229931 190.76226 
L 244.229931 195.226556 
L 244.780854 195.226556 
L 244.780854 190.76226 
z
" clip-path="url(#p28a79ac068)" style="fill: #add8e6; stroke: #add8e6; stroke-width: 0.25; stroke-linejoin: miter"/>
   </g>
   <g id="patch_30">
    <path d="M 244.780854 190.76226 
L 244.780854 195.226556 
L 249.03449 195.226556 
L 249.03449 190.76226 
z
" clip-path="url(#p28a79ac068)" style="fill: #add8e6; stroke: #add8e6; stroke-width: 0.25; stroke-linejoin: miter"/>
   </g>
   <g id="patch_31">
    <path d="M 249.03449 190.76226 
L 249.03449 195.226556 
L 251.789103 195.226556 
L 251.789103 190.76226 
z
" clip-path="url(#p28a79ac068)" style="fill: #add8e6; stroke: #add8e6; stroke-width: 0.25; stroke-linejoin: miter"/>
   </g>
   <g id="patch_32">
    <path d="M 252.237529 190.76226 
L 252.237529 195.226556 
L 257.913314 195.226556 
L 257.913314 190.76226 
z
" clip-path="url(#p28a79ac068)" style="fill: #add8e6; stroke: #add8e6; stroke-width: 0.25; stroke-linejoin: miter"/>
   </g>
   <g id="patch_33">
    <path d="M 258.028623 190.76226 
L 258.028623 195.226556 
L 261.821022 195.226556 
L 261.821022 190.76226 
z
" clip-path="url(#p28a79ac068)" style="fill: #add8e6; stroke: #add8e6; stroke-width: 0.25; stroke-linejoin: miter"/>
   </g>
   <g id="patch_34">
    <path d="M 263.115049 190.76226 
L 263.115049 195.226556 
L 263.819718 195.226556 
L 263.819718 190.76226 
z
" clip-path="url(#p28a79ac068)" style="fill: #add8e6; stroke: #add8e6; stroke-width: 0.25; stroke-linejoin: miter"/>
   </g>
   <g id="patch_35">
    <path d="M 263.845342 190.76226 
L 263.845342 195.226556 
L 264.293768 195.226556 
L 264.293768 190.76226 
z
" clip-path="url(#p28a79ac068)" style="fill: #add8e6; stroke: #add8e6; stroke-width: 0.25; stroke-linejoin: miter"/>
   </g>
   <g id="patch_36">
    <path d="M 264.48595 190.76226 
L 264.48595 195.226556 
L 268.355221 195.226556 
L 268.355221 190.76226 
z
" clip-path="url(#p28a79ac068)" style="fill: #add8e6; stroke: #add8e6; stroke-width: 0.25; stroke-linejoin: miter"/>
   </g>
   <g id="patch_37">
    <path d="M 268.380846 190.76226 
L 268.380846 195.226556 
L 272.186056 195.226556 
L 272.186056 190.76226 
z
" clip-path="url(#p28a79ac068)" style="fill: #add8e6; stroke: #add8e6; stroke-width: 0.25; stroke-linejoin: miter"/>
   </g>
   <g id="patch_38">
    <path d="M 272.21168 190.76226 
L 272.21168 195.226556 
L 275.927206 195.226556 
L 275.927206 190.76226 
z
" clip-path="url(#p28a79ac068)" style="fill: #add8e6; stroke: #add8e6; stroke-width: 0.25; stroke-linejoin: miter"/>
   </g>
   <g id="patch_39">
    <path d="M 277.041863 190.76226 
L 277.041863 195.226556 
L 287.214716 195.226556 
L 287.214716 190.76226 
z
" clip-path="url(#p28a79ac068)" style="fill: #add8e6; stroke: #add8e6; stroke-width: 0.25; stroke-linejoin: miter"/>
   </g>
   <g id="patch_40">
    <path d="M 288.841859 190.76226 
L 288.841859 195.226556 
L 290.994302 195.226556 
L 290.994302 190.76226 
z
" clip-path="url(#p28a79ac068)" style="fill: #add8e6; stroke: #add8e6; stroke-width: 0.25; stroke-linejoin: miter"/>
   </g>
   <g id="patch_41">
    <path d="M 290.994302 190.76226 
L 290.994302 195.226556 
L 291.327418 195.226556 
L 291.327418 190.76226 
z
" clip-path="url(#p28a79ac068)" style="fill: #add8e6; stroke: #add8e6; stroke-width: 0.25; stroke-linejoin: miter"/>
   </g>
   <g id="patch_42">
    <path d="M 295.645114 190.76226 
L 295.645114 195.226556 
L 304.895491 195.226556 
L 304.895491 190.76226 
z
" clip-path="url(#p28a79ac068)" style="fill: #add8e6; stroke: #add8e6; stroke-width: 0.25; stroke-linejoin: miter"/>
   </g>
   <g id="patch_43">
    <path d="M 312.352166 190.76226 
L 312.352166 195.226556 
L 313.210581 195.226556 
L 313.210581 190.76226 
z
" clip-path="url(#p28a79ac068)" style="fill: #add8e6; stroke: #add8e6; stroke-width: 0.25; stroke-linejoin: miter"/>
   </g>
   <g id="patch_44">
    <path d="M 314.197117 190.76226 
L 314.197117 195.226556 
L 322.65314 195.226556 
L 322.65314 190.76226 
z
" clip-path="url(#p28a79ac068)" style="fill: #add8e6; stroke: #add8e6; stroke-width: 0.25; stroke-linejoin: miter"/>
   </g>
   <g id="patch_45">
    <path d="M 324.25466 190.76226 
L 324.25466 195.226556 
L 324.79277 195.226556 
L 324.79277 190.76226 
z
" clip-path="url(#p28a79ac068)" style="fill: #add8e6; stroke: #add8e6; stroke-width: 0.25; stroke-linejoin: miter"/>
   </g>
   <g id="patch_46">
    <path d="M 331.788208 190.76226 
L 331.788208 195.226556 
L 335.285926 195.226556 
L 335.285926 190.76226 
z
" clip-path="url(#p28a79ac068)" style="fill: #add8e6; stroke: #add8e6; stroke-width: 0.25; stroke-linejoin: miter"/>
   </g>
   <g id="patch_47">
    <path d="M 335.285926 190.76226 
L 335.285926 195.226556 
L 347.816215 195.226556 
L 347.816215 190.76226 
z
" clip-path="url(#p28a79ac068)" style="fill: #add8e6; stroke: #add8e6; stroke-width: 0.25; stroke-linejoin: miter"/>
   </g>
   <g id="patch_48">
    <path d="M 347.816215 190.76226 
L 347.816215 195.226556 
L 350.545204 195.226556 
L 350.545204 190.76226 
z
" clip-path="url(#p28a79ac068)" style="fill: #add8e6; stroke: #add8e6; stroke-width: 0.25; stroke-linejoin: miter"/>
   </g>
   <g id="patch_49">
    <path d="M 353.901989 190.76226 
L 353.901989 195.226556 
L 357.681576 195.226556 
L 357.681576 190.76226 
z
" clip-path="url(#p28a79ac068)" style="fill: #add8e6; stroke: #add8e6; stroke-width: 0.25; stroke-linejoin: miter"/>
   </g>
   <g id="patch_50">
    <path d="M 358.552802 190.76226 
L 358.552802 195.226556 
L 364.523267 195.226556 
L 364.523267 190.76226 
z
" clip-path="url(#p28a79ac068)" style="fill: #add8e6; stroke: #add8e6; stroke-width: 0.25; stroke-linejoin: miter"/>
   </g>
   <g id="patch_51">
    <path d="M 365.176687 190.76226 
L 365.176687 195.226556 
L 365.868543 195.226556 
L 365.868543 190.76226 
z
" clip-path="url(#p28a79ac068)" style="fill: #add8e6; stroke: #add8e6; stroke-width: 0.25; stroke-linejoin: miter"/>
   </g>
   <g id="patch_52">
    <path d="M 369.929997 190.76226 
L 369.929997 195.226556 
L 372.133688 195.226556 
L 372.133688 190.76226 
z
" clip-path="url(#p28a79ac068)" style="fill: #add8e6; stroke: #add8e6; stroke-width: 0.25; stroke-linejoin: miter"/>
   </g>
   <g id="patch_53">
    <path d="M 385.061154 190.76226 
L 385.061154 195.226556 
L 385.39427 195.226556 
L 385.39427 190.76226 
z
" clip-path="url(#p28a79ac068)" style="fill: #add8e6; stroke: #add8e6; stroke-width: 0.25; stroke-linejoin: miter"/>
   </g>
   <g id="patch_54">
    <path d="M 388.353878 190.76226 
L 388.353878 195.226556 
L 393.542801 195.226556 
L 393.542801 190.76226 
z
" clip-path="url(#p28a79ac068)" style="fill: #add8e6; stroke: #add8e6; stroke-width: 0.25; stroke-linejoin: miter"/>
   </g>
   <g id="patch_55">
    <path d="M 395.003387 190.76226 
L 395.003387 195.226556 
L 404.2922 195.226556 
L 404.2922 190.76226 
z
" clip-path="url(#p28a79ac068)" style="fill: #add8e6; stroke: #add8e6; stroke-width: 0.25; stroke-linejoin: miter"/>
   </g>
   <g id="patch_56">
    <path d="M 404.381885 190.76226 
L 404.381885 195.226556 
L 407.110875 195.226556 
L 407.110875 190.76226 
z
" clip-path="url(#p28a79ac068)" style="fill: #add8e6; stroke: #add8e6; stroke-width: 0.25; stroke-linejoin: miter"/>
   </g>
   <g id="patch_57">
    <path d="M 407.110875 190.76226 
L 407.110875 195.226556 
L 421.101749 195.226556 
L 421.101749 190.76226 
z
" clip-path="url(#p28a79ac068)" style="fill: #add8e6; stroke: #add8e6; stroke-width: 0.25; stroke-linejoin: miter"/>
   </g>
   <g id="patch_58">
    <path d="M 421.332368 190.76226 
L 421.332368 195.226556 
L 435.694796 195.226556 
L 435.694796 190.76226 
z
" clip-path="url(#p28a79ac068)" style="fill: #add8e6; stroke: #add8e6; stroke-width: 0.25; stroke-linejoin: miter"/>
   </g>
   <g id="patch_59">
    <path d="M 435.835729 190.76226 
L 435.835729 195.226556 
L 437.014448 195.226556 
L 437.014448 190.76226 
z
" clip-path="url(#p28a79ac068)" style="fill: #add8e6; stroke: #add8e6; stroke-width: 0.25; stroke-linejoin: miter"/>
   </g>
   <g id="patch_60">
    <path d="M 437.20663 190.76226 
L 437.20663 195.226556 
L 452.824649 195.226556 
L 452.824649 190.76226 
z
" clip-path="url(#p28a79ac068)" style="fill: #add8e6; stroke: #add8e6; stroke-width: 0.25; stroke-linejoin: miter"/>
   </g>
   <g id="patch_61">
    <path d="M 452.888709 190.76226 
L 452.888709 195.226556 
L 454.951467 195.226556 
L 454.951467 190.76226 
z
" clip-path="url(#p28a79ac068)" style="fill: #add8e6; stroke: #add8e6; stroke-width: 0.25; stroke-linejoin: miter"/>
   </g>
   <g id="patch_62">
    <path d="M 455.668947 190.76226 
L 455.668947 195.226556 
L 456.437677 195.226556 
L 456.437677 190.76226 
z
" clip-path="url(#p28a79ac068)" style="fill: #add8e6; stroke: #add8e6; stroke-width: 0.25; stroke-linejoin: miter"/>
   </g>
   <g id="patch_63">
    <path d="M 458.961671 190.76226 
L 458.961671 195.226556 
L 463.253744 195.226556 
L 463.253744 190.76226 
z
" clip-path="url(#p28a79ac068)" style="fill: #add8e6; stroke: #add8e6; stroke-width: 0.25; stroke-linejoin: miter"/>
   </g>
   <g id="patch_64">
    <path d="M 464.112158 190.76226 
L 464.112158 195.226556 
L 467.930181 195.226556 
L 467.930181 190.76226 
z
" clip-path="url(#p28a79ac068)" style="fill: #add8e6; stroke: #add8e6; stroke-width: 0.25; stroke-linejoin: miter"/>
   </g>
   <g id="patch_65">
    <path d="M 467.942993 190.76226 
L 467.942993 195.226556 
L 473.067856 195.226556 
L 473.067856 190.76226 
z
" clip-path="url(#p28a79ac068)" style="fill: #add8e6; stroke: #add8e6; stroke-width: 0.25; stroke-linejoin: miter"/>
   </g>
   <g id="patch_66">
    <path d="M 473.247226 190.76226 
L 473.247226 195.226556 
L 473.490657 195.226556 
L 473.490657 190.76226 
z
" clip-path="url(#p28a79ac068)" style="fill: #add8e6; stroke: #add8e6; stroke-width: 0.25; stroke-linejoin: miter"/>
   </g>
   <g id="patch_67">
    <path d="M 473.734088 190.76226 
L 473.734088 195.226556 
L 475.169049 195.226556 
L 475.169049 190.76226 
z
" clip-path="url(#p28a79ac068)" style="fill: #add8e6; stroke: #add8e6; stroke-width: 0.25; stroke-linejoin: miter"/>
   </g>
   <g id="patch_68">
    <path d="M 480.780774 190.76226 
L 480.780774 195.226556 
L 482.369481 195.226556 
L 482.369481 190.76226 
z
" clip-path="url(#p28a79ac068)" style="fill: #add8e6; stroke: #add8e6; stroke-width: 0.25; stroke-linejoin: miter"/>
   </g>
   <g id="patch_69">
    <path d="M 482.369481 190.76226 
L 482.369481 195.226556 
L 482.907592 195.226556 
L 482.907592 190.76226 
z
" clip-path="url(#p28a79ac068)" style="fill: #add8e6; stroke: #add8e6; stroke-width: 0.25; stroke-linejoin: miter"/>
   </g>
   <g id="patch_70">
    <path d="M 482.907592 190.76226 
L 482.907592 195.226556 
L 486.52062 195.226556 
L 486.52062 190.76226 
z
" clip-path="url(#p28a79ac068)" style="fill: #add8e6; stroke: #add8e6; stroke-width: 0.25; stroke-linejoin: miter"/>
   </g>
   <g id="patch_71">
    <path d="M 486.52062 190.76226 
L 486.52062 195.226556 
L 488.532128 195.226556 
L 488.532128 190.76226 
z
" clip-path="url(#p28a79ac068)" style="fill: #add8e6; stroke: #add8e6; stroke-width: 0.25; stroke-linejoin: miter"/>
   </g>
   <g id="patch_72">
    <path d="M 488.583377 190.76226 
L 488.583377 195.226556 
L 490.735819 195.226556 
L 490.735819 190.76226 
z
" clip-path="url(#p28a79ac068)" style="fill: #add8e6; stroke: #add8e6; stroke-width: 0.25; stroke-linejoin: miter"/>
   </g>
   <g id="patch_73">
    <path d="M 490.787068 190.76226 
L 490.787068 195.226556 
L 494.60509 195.226556 
L 494.60509 190.76226 
z
" clip-path="url(#p28a79ac068)" style="fill: #add8e6; stroke: #add8e6; stroke-width: 0.25; stroke-linejoin: miter"/>
   </g>
   <g id="patch_74">
    <path d="M 494.938207 190.76226 
L 494.938207 195.226556 
L 498.679356 195.226556 
L 498.679356 190.76226 
z
" clip-path="url(#p28a79ac068)" style="fill: #add8e6; stroke: #add8e6; stroke-width: 0.25; stroke-linejoin: miter"/>
   </g>
   <g id="patch_75">
    <path d="M 498.679356 190.76226 
L 498.679356 195.226556 
L 499.268715 195.226556 
L 499.268715 190.76226 
z
" clip-path="url(#p28a79ac068)" style="fill: #add8e6; stroke: #add8e6; stroke-width: 0.25; stroke-linejoin: miter"/>
   </g>
   <g id="patch_76">
    <path d="M 500.332124 190.76226 
L 500.332124 195.226556 
L 500.985544 195.226556 
L 500.985544 190.76226 
z
" clip-path="url(#p28a79ac068)" style="fill: #add8e6; stroke: #add8e6; stroke-width: 0.25; stroke-linejoin: miter"/>
   </g>
   <g id="patch_77">
    <path d="M 500.985544 190.76226 
L 500.985544 195.226556 
L 501.459594 195.226556 
L 501.459594 190.76226 
z
" clip-path="url(#p28a79ac068)" style="fill: #add8e6; stroke: #add8e6; stroke-width: 0.25; stroke-linejoin: miter"/>
   </g>
   <g id="patch_78">
    <path d="M 501.651776 190.76226 
L 501.651776 195.226556 
L 502.792058 195.226556 
L 502.792058 190.76226 
z
" clip-path="url(#p28a79ac068)" style="fill: #add8e6; stroke: #add8e6; stroke-width: 0.25; stroke-linejoin: miter"/>
   </g>
   <g id="patch_79">
    <path d="M 514.553618 190.76226 
L 514.553618 195.226556 
L 516.88543 195.226556 
L 516.88543 190.76226 
z
" clip-path="url(#p28a79ac068)" style="fill: #add8e6; stroke: #add8e6; stroke-width: 0.25; stroke-linejoin: miter"/>
   </g>
   <g id="patch_80">
    <path d="M 534.297151 190.76226 
L 534.297151 195.226556 
L 539.024837 195.226556 
L 539.024837 190.76226 
z
" clip-path="url(#p28a79ac068)" style="fill: #add8e6; stroke: #add8e6; stroke-width: 0.25; stroke-linejoin: miter"/>
   </g>
   <g id="patch_81">
    <path d="M 541.536019 190.76226 
L 541.536019 195.226556 
L 543.08629 195.226556 
L 543.08629 190.76226 
z
" clip-path="url(#p28a79ac068)" style="fill: #add8e6; stroke: #add8e6; stroke-width: 0.25; stroke-linejoin: miter"/>
   </g>
   <g id="patch_82">
    <path d="M 543.252848 190.76226 
L 543.252848 195.226556 
L 543.867832 195.226556 
L 543.867832 190.76226 
z
" clip-path="url(#p28a79ac068)" style="fill: #add8e6; stroke: #add8e6; stroke-width: 0.25; stroke-linejoin: miter"/>
   </g>
   <g id="patch_83">
    <path d="M 543.867832 190.76226 
L 543.867832 195.226556 
L 547.673042 195.226556 
L 547.673042 190.76226 
z
" clip-path="url(#p28a79ac068)" style="fill: #add8e6; stroke: #add8e6; stroke-width: 0.25; stroke-linejoin: miter"/>
   </g>
   <g id="patch_84">
    <path d="M 547.724291 190.76226 
L 547.724291 195.226556 
L 551.414192 195.226556 
L 551.414192 190.76226 
z
" clip-path="url(#p28a79ac068)" style="fill: #add8e6; stroke: #add8e6; stroke-width: 0.25; stroke-linejoin: miter"/>
   </g>
   <g id="patch_85">
    <path d="M 551.414192 190.76226 
L 551.414192 195.226556 
L 552.785092 195.226556 
L 552.785092 190.76226 
z
" clip-path="url(#p28a79ac068)" style="fill: #add8e6; stroke: #add8e6; stroke-width: 0.25; stroke-linejoin: miter"/>
   </g>
   <g id="patch_86">
    <path d="M 552.785092 190.76226 
L 552.785092 195.226556 
L 556.718424 195.226556 
L 556.718424 190.76226 
z
" clip-path="url(#p28a79ac068)" style="fill: #add8e6; stroke: #add8e6; stroke-width: 0.25; stroke-linejoin: miter"/>
   </g>
   <g id="patch_87">
    <path d="M 556.718424 190.76226 
L 556.718424 195.226556 
L 557.000292 195.226556 
L 557.000292 190.76226 
z
" clip-path="url(#p28a79ac068)" style="fill: #add8e6; stroke: #add8e6; stroke-width: 0.25; stroke-linejoin: miter"/>
   </g>
   <g id="patch_88">
    <path d="M 559.370541 190.76226 
L 559.370541 195.226556 
L 567.019398 195.226556 
L 567.019398 190.76226 
z
" clip-path="url(#p28a79ac068)" style="fill: #add8e6; stroke: #add8e6; stroke-width: 0.25; stroke-linejoin: miter"/>
   </g>
   <g id="patch_89">
    <path d="M 571.234598 190.76226 
L 571.234598 195.226556 
L 571.631774 195.226556 
L 571.631774 190.76226 
z
" clip-path="url(#p28a79ac068)" style="fill: #add8e6; stroke: #add8e6; stroke-width: 0.25; stroke-linejoin: miter"/>
   </g>
   <g id="patch_90">
    <path d="M 578.217223 190.76226 
L 578.217223 195.226556 
L 580.049361 195.226556 
L 580.049361 190.76226 
z
" clip-path="url(#p28a79ac068)" style="fill: #add8e6; stroke: #add8e6; stroke-width: 0.25; stroke-linejoin: miter"/>
   </g>
   <g id="patch_91">
    <path d="M 582.035245 190.76226 
L 582.035245 195.226556 
L 583.406146 195.226556 
L 583.406146 190.76226 
z
" clip-path="url(#p28a79ac068)" style="fill: #add8e6; stroke: #add8e6; stroke-width: 0.25; stroke-linejoin: miter"/>
   </g>
   <g id="patch_92">
    <path d="M 584.533616 190.76226 
L 584.533616 195.226556 
L 586.083887 195.226556 
L 586.083887 190.76226 
z
" clip-path="url(#p28a79ac068)" style="fill: #add8e6; stroke: #add8e6; stroke-width: 0.25; stroke-linejoin: miter"/>
   </g>
   <g id="patch_93">
    <path d="M 600.638496 190.76226 
L 600.638496 195.226556 
L 606.173348 195.226556 
L 606.173348 190.76226 
z
" clip-path="url(#p28a79ac068)" style="fill: #add8e6; stroke: #add8e6; stroke-width: 0.25; stroke-linejoin: miter"/>
   </g>
   <g id="patch_94">
    <path d="M 607.595497 190.76226 
L 607.595497 195.226556 
L 611.656951 195.226556 
L 611.656951 190.76226 
z
" clip-path="url(#p28a79ac068)" style="fill: #add8e6; stroke: #add8e6; stroke-width: 0.25; stroke-linejoin: miter"/>
   </g>
   <g id="patch_95">
    <path d="M 613.220034 190.76226 
L 613.220034 195.226556 
L 614.744681 195.226556 
L 614.744681 190.76226 
z
" clip-path="url(#p28a79ac068)" style="fill: #add8e6; stroke: #add8e6; stroke-width: 0.25; stroke-linejoin: miter"/>
   </g>
   <g id="patch_96">
    <path d="M 615.346852 190.76226 
L 615.346852 195.226556 
L 619.164875 195.226556 
L 619.164875 190.76226 
z
" clip-path="url(#p28a79ac068)" style="fill: #add8e6; stroke: #add8e6; stroke-width: 0.25; stroke-linejoin: miter"/>
   </g>
   <g id="patch_97">
    <path d="M 619.177687 190.76226 
L 619.177687 195.226556 
L 620.369217 195.226556 
L 620.369217 190.76226 
z
" clip-path="url(#p28a79ac068)" style="fill: #add8e6; stroke: #add8e6; stroke-width: 0.25; stroke-linejoin: miter"/>
   </g>
   <g id="patch_98">
    <path d="M 631.041743 190.76226 
L 631.041743 195.226556 
L 631.387672 195.226556 
L 631.387672 190.76226 
z
" clip-path="url(#p28a79ac068)" style="fill: #add8e6; stroke: #add8e6; stroke-width: 0.25; stroke-linejoin: miter"/>
   </g>
   <g id="patch_99">
    <path d="M 637.819374 190.76226 
L 637.819374 195.226556 
L 638.793098 195.226556 
L 638.793098 190.76226 
z
" clip-path="url(#p28a79ac068)" style="fill: #add8e6; stroke: #add8e6; stroke-width: 0.25; stroke-linejoin: miter"/>
   </g>
   <g id="patch_100">
    <path d="M 646.377895 190.76226 
L 646.377895 195.226556 
L 653.501454 195.226556 
L 653.501454 190.76226 
z
" clip-path="url(#p28a79ac068)" style="fill: #add8e6; stroke: #add8e6; stroke-width: 0.25; stroke-linejoin: miter"/>
   </g>
   <g id="patch_101">
    <path d="M 653.732072 190.76226 
L 653.732072 195.226556 
L 657.524471 195.226556 
L 657.524471 190.76226 
z
" clip-path="url(#p28a79ac068)" style="fill: #add8e6; stroke: #add8e6; stroke-width: 0.25; stroke-linejoin: miter"/>
   </g>
   <g id="patch_102">
    <path d="M 657.601344 190.76226 
L 657.601344 195.226556 
L 661.5603 195.226556 
L 661.5603 190.76226 
z
" clip-path="url(#p28a79ac068)" style="fill: #add8e6; stroke: #add8e6; stroke-width: 0.25; stroke-linejoin: miter"/>
   </g>
   <g id="patch_103">
    <path d="M 665.711439 190.76226 
L 665.711439 195.226556 
L 670.631307 195.226556 
L 670.631307 190.76226 
z
" clip-path="url(#p28a79ac068)" style="fill: #add8e6; stroke: #add8e6; stroke-width: 0.25; stroke-linejoin: miter"/>
   </g>
   <g id="patch_104">
    <path d="M 681.367894 190.76226 
L 681.367894 195.226556 
L 682.943789 195.226556 
L 682.943789 190.76226 
z
" clip-path="url(#p28a79ac068)" style="fill: #add8e6; stroke: #add8e6; stroke-width: 0.25; stroke-linejoin: miter"/>
   </g>
   <g id="patch_105">
    <path d="M 683.135971 190.76226 
L 683.135971 195.226556 
L 686.249325 195.226556 
L 686.249325 190.76226 
z
" clip-path="url(#p28a79ac068)" style="fill: #add8e6; stroke: #add8e6; stroke-width: 0.25; stroke-linejoin: miter"/>
   </g>
   <g id="patch_106">
    <path d="M 688.055839 190.76226 
L 688.055839 195.226556 
L 691.963547 195.226556 
L 691.963547 190.76226 
z
" clip-path="url(#p28a79ac068)" style="fill: #add8e6; stroke: #add8e6; stroke-width: 0.25; stroke-linejoin: miter"/>
   </g>
   <g id="patch_107">
    <path d="M 701.764847 190.76226 
L 701.764847 195.226556 
L 703.148559 195.226556 
L 703.148559 190.76226 
z
" clip-path="url(#p28a79ac068)" style="fill: #add8e6; stroke: #add8e6; stroke-width: 0.25; stroke-linejoin: miter"/>
   </g>
   <g id="patch_108">
    <path d="M 703.276681 190.76226 
L 703.276681 195.226556 
L 706.940958 195.226556 
L 706.940958 190.76226 
z
" clip-path="url(#p28a79ac068)" style="fill: #add8e6; stroke: #add8e6; stroke-width: 0.25; stroke-linejoin: miter"/>
   </g>
   <g id="patch_109">
    <path d="M 709.554638 190.76226 
L 709.554638 195.226556 
L 713.436721 195.226556 
L 713.436721 190.76226 
z
" clip-path="url(#p28a79ac068)" style="fill: #add8e6; stroke: #add8e6; stroke-width: 0.25; stroke-linejoin: miter"/>
   </g>
   <g id="patch_110">
    <path d="M 85.52575 44.370555 
L 391.552817 44.370555 
L 404.369073 49.950925 
L 391.552817 55.531295 
L 85.52575 55.531295 
z
" clip-path="url(#p28a79ac068)" style="fill: #1f77b4; stroke: #1f77b4; stroke-width: 0.5; stroke-linejoin: miter"/>
   </g>
   <g id="patch_111">
    <path d="M 404.369073 44.370555 
L 423.224468 44.370555 
L 436.040724 49.950925 
L 423.224468 55.531295 
L 404.369073 55.531295 
z
" clip-path="url(#p28a79ac068)" style="fill: #2ca02c; stroke: #2ca02c; stroke-width: 0.5; stroke-linejoin: miter"/>
   </g>
   <g id="patch_112">
    <path d="M 436.040724 44.370555 
L 437.065696 49.950925 
L 436.040724 55.531295 
z
" clip-path="url(#p28a79ac068)" style="fill: #9467bd; stroke: #9467bd; stroke-width: 0.5; stroke-linejoin: miter"/>
   </g>
   <g id="patch_113">
    <path d="M 436.040724 44.370555 
L 437.065696 49.950925 
L 436.040724 55.531295 
z
" clip-path="url(#p28a79ac068)" style="fill: #9467bd; stroke: #9467bd; stroke-width: 0.5; stroke-linejoin: miter"/>
   </g>
   <g id="patch_114">
    <path d="M 437.065696 44.370555 
L 452.7734 49.950925 
L 437.065696 55.531295 
z
" clip-path="url(#p28a79ac068)" style="fill: #e377c2; stroke: #e377c2; stroke-width: 0.5; stroke-linejoin: miter"/>
   </g>
   <g id="patch_115">
    <path d="M 437.065696 44.370555 
L 452.7734 49.950925 
L 437.065696 55.531295 
z
" clip-path="url(#p28a79ac068)" style="fill: #e377c2; stroke: #e377c2; stroke-width: 0.5; stroke-linejoin: miter"/>
   </g>
   <g id="patch_116">
    <path d="M 452.799024 44.370555 
L 687.897993 44.370555 
L 700.71425 49.950925 
L 687.897993 55.531295 
L 452.799024 55.531295 
z
" clip-path="url(#p28a79ac068)" style="fill: #9edae5; stroke: #9edae5; stroke-width: 0.5; stroke-linejoin: miter"/>
   </g>
   <g id="matplotlib.axis_1">
    <g id="xtick_1">
     <g id="line2d_1">
      <defs>
       <path id="mf021e34864" d="M 0 0 
L 0 3.5 
" style="stroke: #000000; stroke-width: 0.8"/>
      </defs>
      <g>
       <use xlink:href="#mf021e34864" x="132.443867" y="238.753442" style="stroke: #000000; stroke-width: 0.8"/>
      </g>
     </g>
     <g id="text_1">
      <!-- 22,615 kbp -->
      <g transform="translate(112.614179 251.072348) scale(0.07 -0.07)">
       <defs>
        <path id="DejaVuSans-32" d="M 1228 531 
L 3431 531 
L 3431 0 
L 469 0 
L 469 531 
Q 828 903 1448 1529 
Q 2069 2156 2228 2338 
Q 2531 2678 2651 2914 
Q 2772 3150 2772 3378 
Q 2772 3750 2511 3984 
Q 2250 4219 1831 4219 
Q 1534 4219 1204 4116 
Q 875 4013 500 3803 
L 500 4441 
Q 881 4594 1212 4672 
Q 1544 4750 1819 4750 
Q 2544 4750 2975 4387 
Q 3406 4025 3406 3419 
Q 3406 3131 3298 2873 
Q 3191 2616 2906 2266 
Q 2828 2175 2409 1742 
Q 1991 1309 1228 531 
z
" transform="scale(0.015625)"/>
        <path id="DejaVuSans-2c" d="M 750 794 
L 1409 794 
L 1409 256 
L 897 -744 
L 494 -744 
L 750 256 
L 750 794 
z
" transform="scale(0.015625)"/>
        <path id="DejaVuSans-36" d="M 2113 2584 
Q 1688 2584 1439 2293 
Q 1191 2003 1191 1497 
Q 1191 994 1439 701 
Q 1688 409 2113 409 
Q 2538 409 2786 701 
Q 3034 994 3034 1497 
Q 3034 2003 2786 2293 
Q 2538 2584 2113 2584 
z
M 3366 4563 
L 3366 3988 
Q 3128 4100 2886 4159 
Q 2644 4219 2406 4219 
Q 1781 4219 1451 3797 
Q 1122 3375 1075 2522 
Q 1259 2794 1537 2939 
Q 1816 3084 2150 3084 
Q 2853 3084 3261 2657 
Q 3669 2231 3669 1497 
Q 3669 778 3244 343 
Q 2819 -91 2113 -91 
Q 1303 -91 875 529 
Q 447 1150 447 2328 
Q 447 3434 972 4092 
Q 1497 4750 2381 4750 
Q 2619 4750 2861 4703 
Q 3103 4656 3366 4563 
z
" transform="scale(0.015625)"/>
        <path id="DejaVuSans-31" d="M 794 531 
L 1825 531 
L 1825 4091 
L 703 3866 
L 703 4441 
L 1819 4666 
L 2450 4666 
L 2450 531 
L 3481 531 
L 3481 0 
L 794 0 
L 794 531 
z
" transform="scale(0.015625)"/>
        <path id="DejaVuSans-35" d="M 691 4666 
L 3169 4666 
L 3169 4134 
L 1269 4134 
L 1269 2991 
Q 1406 3038 1543 3061 
Q 1681 3084 1819 3084 
Q 2600 3084 3056 2656 
Q 3513 2228 3513 1497 
Q 3513 744 3044 326 
Q 2575 -91 1722 -91 
Q 1428 -91 1123 -41 
Q 819 9 494 109 
L 494 744 
Q 775 591 1075 516 
Q 1375 441 1709 441 
Q 2250 441 2565 725 
Q 2881 1009 2881 1497 
Q 2881 1984 2565 2268 
Q 2250 2553 1709 2553 
Q 1456 2553 1204 2497 
Q 953 2441 691 2322 
L 691 4666 
z
" transform="scale(0.015625)"/>
        <path id="DejaVuSans-20" transform="scale(0.015625)"/>
        <path id="DejaVuSans-6b" d="M 581 4863 
L 1159 4863 
L 1159 1991 
L 2875 3500 
L 3609 3500 
L 1753 1863 
L 3688 0 
L 2938 0 
L 1159 1709 
L 1159 0 
L 581 0 
L 581 4863 
z
" transform="scale(0.015625)"/>
        <path id="DejaVuSans-62" d="M 3116 1747 
Q 3116 2381 2855 2742 
Q 2594 3103 2138 3103 
Q 1681 3103 1420 2742 
Q 1159 2381 1159 1747 
Q 1159 1113 1420 752 
Q 1681 391 2138 391 
Q 2594 391 2855 752 
Q 3116 1113 3116 1747 
z
M 1159 2969 
Q 1341 3281 1617 3432 
Q 1894 3584 2278 3584 
Q 2916 3584 3314 3078 
Q 3713 2572 3713 1747 
Q 3713 922 3314 415 
Q 2916 -91 2278 -91 
Q 1894 -91 1617 61 
Q 1341 213 1159 525 
L 1159 0 
L 581 0 
L 581 4863 
L 1159 4863 
L 1159 2969 
z
" transform="scale(0.015625)"/>
        <path id="DejaVuSans-70" d="M 1159 525 
L 1159 -1331 
L 581 -1331 
L 581 3500 
L 1159 3500 
L 1159 2969 
Q 1341 3281 1617 3432 
Q 1894 3584 2278 3584 
Q 2916 3584 3314 3078 
Q 3713 2572 3713 1747 
Q 3713 922 3314 415 
Q 2916 -91 2278 -91 
Q 1894 -91 1617 61 
Q 1341 213 1159 525 
z
M 3116 1747 
Q 3116 2381 2855 2742 
Q 2594 3103 2138 3103 
Q 1681 3103 1420 2742 
Q 1159 2381 1159 1747 
Q 1159 1113 1420 752 
Q 1681 391 2138 391 
Q 2594 391 2855 752 
Q 3116 1113 3116 1747 
z
" transform="scale(0.015625)"/>
       </defs>
       <use xlink:href="#DejaVuSans-32"/>
       <use xlink:href="#DejaVuSans-32" transform="translate(63.623047 0)"/>
       <use xlink:href="#DejaVuSans-2c" transform="translate(127.246094 0)"/>
       <use xlink:href="#DejaVuSans-36" transform="translate(159.033203 0)"/>
       <use xlink:href="#DejaVuSans-31" transform="translate(222.65625 0)"/>
       <use xlink:href="#DejaVuSans-35" transform="translate(286.279297 0)"/>
       <use xlink:href="#DejaVuSans-20" transform="translate(349.902344 0)"/>
       <use xlink:href="#DejaVuSans-6b" transform="translate(381.689453 0)"/>
       <use xlink:href="#DejaVuSans-62" transform="translate(439.599609 0)"/>
       <use xlink:href="#DejaVuSans-70" transform="translate(503.076172 0)"/>
      </g>
     </g>
    </g>
    <g id="xtick_2">
     <g id="line2d_2">
      <g>
       <use xlink:href="#mf021e34864" x="247.753274" y="238.753442" style="stroke: #000000; stroke-width: 0.8"/>
      </g>
     </g>
     <g id="text_2">
      <!-- 22,624 kbp -->
      <g transform="translate(227.923587 251.072348) scale(0.07 -0.07)">
       <defs>
        <path id="DejaVuSans-34" d="M 2419 4116 
L 825 1625 
L 2419 1625 
L 2419 4116 
z
M 2253 4666 
L 3047 4666 
L 3047 1625 
L 3713 1625 
L 3713 1100 
L 3047 1100 
L 3047 0 
L 2419 0 
L 2419 1100 
L 313 1100 
L 313 1709 
L 2253 4666 
z
" transform="scale(0.015625)"/>
       </defs>
       <use xlink:href="#DejaVuSans-32"/>
       <use xlink:href="#DejaVuSans-32" transform="translate(63.623047 0)"/>
       <use xlink:href="#DejaVuSans-2c" transform="translate(127.246094 0)"/>
       <use xlink:href="#DejaVuSans-36" transform="translate(159.033203 0)"/>
       <use xlink:href="#DejaVuSans-32" transform="translate(222.65625 0)"/>
       <use xlink:href="#DejaVuSans-34" transform="translate(286.279297 0)"/>
       <use xlink:href="#DejaVuSans-20" transform="translate(349.902344 0)"/>
       <use xlink:href="#DejaVuSans-6b" transform="translate(381.689453 0)"/>
       <use xlink:href="#DejaVuSans-62" transform="translate(439.599609 0)"/>
       <use xlink:href="#DejaVuSans-70" transform="translate(503.076172 0)"/>
      </g>
     </g>
    </g>
    <g id="xtick_3">
     <g id="line2d_3">
      <g>
       <use xlink:href="#mf021e34864" x="350.250525" y="238.753442" style="stroke: #000000; stroke-width: 0.8"/>
      </g>
     </g>
     <g id="text_3">
      <!-- 22,632 kbp -->
      <g transform="translate(330.420837 251.072348) scale(0.07 -0.07)">
       <defs>
        <path id="DejaVuSans-33" d="M 2597 2516 
Q 3050 2419 3304 2112 
Q 3559 1806 3559 1356 
Q 3559 666 3084 287 
Q 2609 -91 1734 -91 
Q 1441 -91 1130 -33 
Q 819 25 488 141 
L 488 750 
Q 750 597 1062 519 
Q 1375 441 1716 441 
Q 2309 441 2620 675 
Q 2931 909 2931 1356 
Q 2931 1769 2642 2001 
Q 2353 2234 1838 2234 
L 1294 2234 
L 1294 2753 
L 1863 2753 
Q 2328 2753 2575 2939 
Q 2822 3125 2822 3475 
Q 2822 3834 2567 4026 
Q 2313 4219 1838 4219 
Q 1578 4219 1281 4162 
Q 984 4106 628 3988 
L 628 4550 
Q 988 4650 1302 4700 
Q 1616 4750 1894 4750 
Q 2613 4750 3031 4423 
Q 3450 4097 3450 3541 
Q 3450 3153 3228 2886 
Q 3006 2619 2597 2516 
z
" transform="scale(0.015625)"/>
       </defs>
       <use xlink:href="#DejaVuSans-32"/>
       <use xlink:href="#DejaVuSans-32" transform="translate(63.623047 0)"/>
       <use xlink:href="#DejaVuSans-2c" transform="translate(127.246094 0)"/>
       <use xlink:href="#DejaVuSans-36" transform="translate(159.033203 0)"/>
       <use xlink:href="#DejaVuSans-33" transform="translate(222.65625 0)"/>
       <use xlink:href="#DejaVuSans-32" transform="translate(286.279297 0)"/>
       <use xlink:href="#DejaVuSans-20" transform="translate(349.902344 0)"/>
       <use xlink:href="#DejaVuSans-6b" transform="translate(381.689453 0)"/>
       <use xlink:href="#DejaVuSans-62" transform="translate(439.599609 0)"/>
       <use xlink:href="#DejaVuSans-70" transform="translate(503.076172 0)"/>
      </g>
     </g>
    </g>
    <g id="xtick_4">
     <g id="line2d_4">
      <g>
       <use xlink:href="#mf021e34864" x="465.559932" y="238.753442" style="stroke: #000000; stroke-width: 0.8"/>
      </g>
     </g>
     <g id="text_4">
      <!-- 22,641 kbp -->
      <g transform="translate(445.730245 251.072348) scale(0.07 -0.07)">
       <use xlink:href="#DejaVuSans-32"/>
       <use xlink:href="#DejaVuSans-32" transform="translate(63.623047 0)"/>
       <use xlink:href="#DejaVuSans-2c" transform="translate(127.246094 0)"/>
       <use xlink:href="#DejaVuSans-36" transform="translate(159.033203 0)"/>
       <use xlink:href="#DejaVuSans-34" transform="translate(222.65625 0)"/>
       <use xlink:href="#DejaVuSans-31" transform="translate(286.279297 0)"/>
       <use xlink:href="#DejaVuSans-20" transform="translate(349.902344 0)"/>
       <use xlink:href="#DejaVuSans-6b" transform="translate(381.689453 0)"/>
       <use xlink:href="#DejaVuSans-62" transform="translate(439.599609 0)"/>
       <use xlink:href="#DejaVuSans-70" transform="translate(503.076172 0)"/>
      </g>
     </g>
    </g>
    <g id="xtick_5">
     <g id="line2d_5">
      <g>
       <use xlink:href="#mf021e34864" x="580.869339" y="238.753442" style="stroke: #000000; stroke-width: 0.8"/>
      </g>
     </g>
     <g id="text_5">
      <!-- 22,650 kbp -->
      <g transform="translate(561.039652 251.072348) scale(0.07 -0.07)">
       <defs>
        <path id="DejaVuSans-30" d="M 2034 4250 
Q 1547 4250 1301 3770 
Q 1056 3291 1056 2328 
Q 1056 1369 1301 889 
Q 1547 409 2034 409 
Q 2525 409 2770 889 
Q 3016 1369 3016 2328 
Q 3016 3291 2770 3770 
Q 2525 4250 2034 4250 
z
M 2034 4750 
Q 2819 4750 3233 4129 
Q 3647 3509 3647 2328 
Q 3647 1150 3233 529 
Q 2819 -91 2034 -91 
Q 1250 -91 836 529 
Q 422 1150 422 2328 
Q 422 3509 836 4129 
Q 1250 4750 2034 4750 
z
" transform="scale(0.015625)"/>
       </defs>
       <use xlink:href="#DejaVuSans-32"/>
       <use xlink:href="#DejaVuSans-32" transform="translate(63.623047 0)"/>
       <use xlink:href="#DejaVuSans-2c" transform="translate(127.246094 0)"/>
       <use xlink:href="#DejaVuSans-36" transform="translate(159.033203 0)"/>
       <use xlink:href="#DejaVuSans-35" transform="translate(222.65625 0)"/>
       <use xlink:href="#DejaVuSans-30" transform="translate(286.279297 0)"/>
       <use xlink:href="#DejaVuSans-20" transform="translate(349.902344 0)"/>
       <use xlink:href="#DejaVuSans-6b" transform="translate(381.689453 0)"/>
       <use xlink:href="#DejaVuSans-62" transform="translate(439.599609 0)"/>
       <use xlink:href="#DejaVuSans-70" transform="translate(503.076172 0)"/>
      </g>
     </g>
    </g>
   </g>
   <g id="matplotlib.axis_2"/>
   <g id="LineCollection_1">
    <path d="M 85.52575 69.48222 
L 111.598488 69.48222 
" clip-path="url(#p28a79ac068)" style="fill: none; stroke: #000000; stroke-width: 0.789474"/>
   </g>
   <g id="LineCollection_2">
    <path d="M 111.598488 69.48222 
L 164.794562 69.48222 
" clip-path="url(#p28a79ac068)" style="fill: none; stroke: #000000; stroke-width: 1.578947"/>
   </g>
   <g id="LineCollection_3">
    <path d="M 164.794562 69.48222 
L 171.725938 69.48222 
" clip-path="url(#p28a79ac068)" style="fill: none; stroke: #000000; stroke-width: 2.368421"/>
   </g>
   <g id="LineCollection_4">
    <path d="M 171.725938 69.48222 
L 183.103133 69.48222 
" clip-path="url(#p28a79ac068)" style="fill: none; stroke: #000000; stroke-width: 3.157895"/>
   </g>
   <g id="LineCollection_5">
    <path d="M 183.103133 69.48222 
L 204.332876 69.48222 
" clip-path="url(#p28a79ac068)" style="fill: none; stroke: #000000; stroke-width: 3.947368"/>
   </g>
   <g id="LineCollection_6">
    <path d="M 204.332876 69.48222 
L 209.22712 69.48222 
" clip-path="url(#p28a79ac068)" style="fill: none; stroke: #000000; stroke-width: 4.736842"/>
   </g>
   <g id="LineCollection_7">
    <path d="M 209.22712 69.48222 
L 210.598021 69.48222 
" clip-path="url(#p28a79ac068)" style="fill: none; stroke: #000000; stroke-width: 5.526316"/>
   </g>
   <g id="LineCollection_8">
    <path d="M 210.598021 69.48222 
L 211.571744 69.48222 
" clip-path="url(#p28a79ac068)" style="fill: none; stroke: #000000; stroke-width: 6.315789"/>
   </g>
   <g id="LineCollection_9">
    <path d="M 211.571744 69.48222 
L 222.923315 69.48222 
" clip-path="url(#p28a79ac068)" style="fill: none; stroke: #000000; stroke-width: 7.105263"/>
   </g>
   <g id="LineCollection_10">
    <path d="M 222.923315 69.48222 
L 231.110283 69.48222 
" clip-path="url(#p28a79ac068)" style="fill: none; stroke: #000000; stroke-width: 7.894737"/>
   </g>
   <g id="LineCollection_11">
    <path d="M 231.110283 69.48222 
L 240.027544 69.48222 
" clip-path="url(#p28a79ac068)" style="fill: none; stroke: #000000; stroke-width: 8.684211"/>
   </g>
   <g id="LineCollection_12">
    <path d="M 240.027544 69.48222 
L 246.459246 69.48222 
" clip-path="url(#p28a79ac068)" style="fill: none; stroke: #000000; stroke-width: 9.473684"/>
   </g>
   <g id="LineCollection_13">
    <path d="M 246.459246 69.48222 
L 297.989739 69.48222 
" clip-path="url(#p28a79ac068)" style="fill: none; stroke: #000000; stroke-width: 10.263158"/>
   </g>
   <g id="LineCollection_14">
    <path d="M 297.989739 69.48222 
L 314.145868 69.48222 
" clip-path="url(#p28a79ac068)" style="fill: none; stroke: #000000; stroke-width: 11.052632"/>
   </g>
   <g id="LineCollection_15">
    <path d="M 314.145868 69.48222 
L 337.374308 69.48222 
" clip-path="url(#p28a79ac068)" style="fill: none; stroke: #000000; stroke-width: 11.842105"/>
   </g>
   <g id="LineCollection_16">
    <path d="M 337.374308 69.48222 
L 345.497215 69.48222 
" clip-path="url(#p28a79ac068)" style="fill: none; stroke: #000000; stroke-width: 12.631579"/>
   </g>
   <g id="LineCollection_17">
    <path d="M 345.497215 69.48222 
L 370.416859 69.48222 
" clip-path="url(#p28a79ac068)" style="fill: none; stroke: #000000; stroke-width: 13.421053"/>
   </g>
   <g id="LineCollection_18">
    <path d="M 370.416859 69.48222 
L 384.048993 69.48222 
" clip-path="url(#p28a79ac068)" style="fill: none; stroke: #000000; stroke-width: 14.210526"/>
   </g>
   <g id="LineCollection_19">
    <path d="M 384.048993 69.48222 
L 404.369073 69.48222 
" clip-path="url(#p28a79ac068)" style="fill: none; stroke: #000000; stroke-width: 15"/>
   </g>
   <g id="LineCollection_20">
    <path d="M 436.040724 114.125179 
L 437.065696 114.125179 
" clip-path="url(#p28a79ac068)" style="fill: none; stroke: #000000; stroke-width: 15"/>
   </g>
   <g id="LineCollection_21">
    <path d="M 452.7734 158.768139 
L 452.786212 158.768139 
" clip-path="url(#p28a79ac068)" style="fill: none; stroke: #000000; stroke-width: 0.882353"/>
   </g>
   <g id="LineCollection_22">
    <path d="M 452.786212 158.768139 
L 452.799024 158.768139 
" clip-path="url(#p28a79ac068)" style="fill: none; stroke: #000000; stroke-width: 14.117647"/>
   </g>
   <g id="LineCollection_23">
    <path d="M 452.799024 158.768139 
L 459.691964 158.768139 
" clip-path="url(#p28a79ac068)" style="fill: none; stroke: #000000; stroke-width: 15"/>
   </g>
   <g id="LineCollection_24">
    <path d="M 459.691964 158.768139 
L 462.420954 158.768139 
" clip-path="url(#p28a79ac068)" style="fill: none; stroke: #000000; stroke-width: 14.117647"/>
   </g>
   <g id="LineCollection_25">
    <path d="M 462.420954 158.768139 
L 464.611832 158.768139 
" clip-path="url(#p28a79ac068)" style="fill: none; stroke: #000000; stroke-width: 13.235294"/>
   </g>
   <g id="LineCollection_26">
    <path d="M 464.611832 158.768139 
L 479.422685 158.768139 
" clip-path="url(#p28a79ac068)" style="fill: none; stroke: #000000; stroke-width: 12.352941"/>
   </g>
   <g id="LineCollection_27">
    <path d="M 479.422685 158.768139 
L 481.805746 158.768139 
" clip-path="url(#p28a79ac068)" style="fill: none; stroke: #000000; stroke-width: 11.470588"/>
   </g>
   <g id="LineCollection_28">
    <path d="M 481.805746 158.768139 
L 487.186852 158.768139 
" clip-path="url(#p28a79ac068)" style="fill: none; stroke: #000000; stroke-width: 10.588235"/>
   </g>
   <g id="LineCollection_29">
    <path d="M 487.186852 158.768139 
L 496.783157 158.768139 
" clip-path="url(#p28a79ac068)" style="fill: none; stroke: #000000; stroke-width: 9.705882"/>
   </g>
   <g id="LineCollection_30">
    <path d="M 496.783157 158.768139 
L 519.716917 158.768139 
" clip-path="url(#p28a79ac068)" style="fill: none; stroke: #000000; stroke-width: 8.823529"/>
   </g>
   <g id="LineCollection_31">
    <path d="M 519.716917 158.768139 
L 519.947536 158.768139 
" clip-path="url(#p28a79ac068)" style="fill: none; stroke: #000000; stroke-width: 7.941176"/>
   </g>
   <g id="LineCollection_32">
    <path d="M 519.947536 158.768139 
L 525.67457 158.768139 
" clip-path="url(#p28a79ac068)" style="fill: none; stroke: #000000; stroke-width: 7.058824"/>
   </g>
   <g id="LineCollection_33">
    <path d="M 525.67457 158.768139 
L 551.478253 158.768139 
" clip-path="url(#p28a79ac068)" style="fill: none; stroke: #000000; stroke-width: 6.176471"/>
   </g>
   <g id="LineCollection_34">
    <path d="M 551.478253 158.768139 
L 574.21983 158.768139 
" clip-path="url(#p28a79ac068)" style="fill: none; stroke: #000000; stroke-width: 5.294118"/>
   </g>
   <g id="LineCollection_35">
    <path d="M 574.21983 158.768139 
L 600.471938 158.768139 
" clip-path="url(#p28a79ac068)" style="fill: none; stroke: #000000; stroke-width: 4.411765"/>
   </g>
   <g id="LineCollection_36">
    <path d="M 600.471938 158.768139 
L 645.416983 158.768139 
" clip-path="url(#p28a79ac068)" style="fill: none; stroke: #000000; stroke-width: 3.529412"/>
   </g>
   <g id="LineCollection_37">
    <path d="M 645.416983 158.768139 
L 653.322083 158.768139 
" clip-path="url(#p28a79ac068)" style="fill: none; stroke: #000000; stroke-width: 2.647059"/>
   </g>
   <g id="LineCollection_38">
    <path d="M 653.322083 158.768139 
L 670.285378 158.768139 
" clip-path="url(#p28a79ac068)" style="fill: none; stroke: #000000; stroke-width: 1.764706"/>
   </g>
   <g id="LineCollection_39">
    <path d="M 670.285378 158.768139 
L 700.71425 158.768139 
" clip-path="url(#p28a79ac068)" style="fill: none; stroke: #000000; stroke-width: 0.882353"/>
   </g>
   <g id="line2d_6">
    <path d="M 417.18533 69.48222 
L 417.18533 91.8037 
L 436.040724 91.8037 
L 436.040724 114.125179 
" clip-path="url(#p28a79ac068)" style="fill: none; stroke-dasharray: 2.775,1.2; stroke-dashoffset: 0; stroke: #808080; stroke-width: 0.75"/>
   </g>
   <g id="line2d_7">
    <path d="M 449.881953 114.125179 
L 449.881953 136.446659 
L 452.799024 136.446659 
L 452.799024 158.768139 
" clip-path="url(#p28a79ac068)" style="fill: none; stroke-dasharray: 2.775,1.2; stroke-dashoffset: 0; stroke: #808080; stroke-width: 0.75"/>
   </g>
   <g id="patch_117">
    <path d="M 8.64 238.753442 
L 8.64 36 
" style="fill: none; stroke: #000000; stroke-width: 0.8; stroke-linejoin: miter; stroke-linecap: square"/>
   </g>
   <g id="patch_118">
    <path d="M 777.6 238.753442 
L 777.6 36 
" style="fill: none; stroke: #000000; stroke-width: 0.8; stroke-linejoin: miter; stroke-linecap: square"/>
   </g>
   <g id="patch_119">
    <path d="M 8.64 238.753442 
L 777.6 238.753442 
" style="fill: none; stroke: #000000; stroke-width: 0.8; stroke-linejoin: miter; stroke-linecap: square"/>
   </g>
   <g id="patch_120">
    <path d="M 8.64 36 
L 777.6 36 
" style="fill: none; stroke: #000000; stroke-width: 0.8; stroke-linejoin: miter; stroke-linecap: square"/>
   </g>
   <g id="text_6">
    <!-- &gt; -->
    <g transform="translate(72.713594 226.476628) scale(0.06 -0.06)">
     <defs>
      <path id="DejaVuSans-3e" d="M 678 3150 
L 678 3719 
L 4684 2266 
L 4684 1747 
L 678 294 
L 678 863 
L 3897 2003 
L 678 3150 
z
" transform="scale(0.015625)"/>
     </defs>
     <use xlink:href="#DejaVuSans-3e"/>
    </g>
   </g>
   <g id="text_7">
    <!-- &gt; -->
    <g transform="translate(79.439976 226.476628) scale(0.06 -0.06)">
     <use xlink:href="#DejaVuSans-3e"/>
    </g>
   </g>
   <g id="text_8">
    <!-- &gt; -->
    <g transform="translate(86.166358 226.476628) scale(0.06 -0.06)">
     <use xlink:href="#DejaVuSans-3e"/>
    </g>
   </g>
   <g id="text_9">
    <!-- &gt; -->
    <g transform="translate(92.89274 226.476628) scale(0.06 -0.06)">
     <use xlink:href="#DejaVuSans-3e"/>
    </g>
   </g>
   <g id="text_10">
    <!-- &gt; -->
    <g transform="translate(99.619122 226.476628) scale(0.06 -0.06)">
     <use xlink:href="#DejaVuSans-3e"/>
    </g>
   </g>
   <g id="text_11">
    <!-- abhd4 -->
    <g transform="translate(83.224549 230.940924) scale(0.04 -0.04)">
     <defs>
      <path id="DejaVuSans-61" d="M 2194 1759 
Q 1497 1759 1228 1600 
Q 959 1441 959 1056 
Q 959 750 1161 570 
Q 1363 391 1709 391 
Q 2188 391 2477 730 
Q 2766 1069 2766 1631 
L 2766 1759 
L 2194 1759 
z
M 3341 1997 
L 3341 0 
L 2766 0 
L 2766 531 
Q 2569 213 2275 61 
Q 1981 -91 1556 -91 
Q 1019 -91 701 211 
Q 384 513 384 1019 
Q 384 1609 779 1909 
Q 1175 2209 1959 2209 
L 2766 2209 
L 2766 2266 
Q 2766 2663 2505 2880 
Q 2244 3097 1772 3097 
Q 1472 3097 1187 3025 
Q 903 2953 641 2809 
L 641 3341 
Q 956 3463 1253 3523 
Q 1550 3584 1831 3584 
Q 2591 3584 2966 3190 
Q 3341 2797 3341 1997 
z
" transform="scale(0.015625)"/>
      <path id="DejaVuSans-68" d="M 3513 2113 
L 3513 0 
L 2938 0 
L 2938 2094 
Q 2938 2591 2744 2837 
Q 2550 3084 2163 3084 
Q 1697 3084 1428 2787 
Q 1159 2491 1159 1978 
L 1159 0 
L 581 0 
L 581 4863 
L 1159 4863 
L 1159 2956 
Q 1366 3272 1645 3428 
Q 1925 3584 2291 3584 
Q 2894 3584 3203 3211 
Q 3513 2838 3513 2113 
z
" transform="scale(0.015625)"/>
      <path id="DejaVuSans-64" d="M 2906 2969 
L 2906 4863 
L 3481 4863 
L 3481 0 
L 2906 0 
L 2906 525 
Q 2725 213 2448 61 
Q 2172 -91 1784 -91 
Q 1150 -91 751 415 
Q 353 922 353 1747 
Q 353 2572 751 3078 
Q 1150 3584 1784 3584 
Q 2172 3584 2448 3432 
Q 2725 3281 2906 2969 
z
M 947 1747 
Q 947 1113 1208 752 
Q 1469 391 1925 391 
Q 2381 391 2643 752 
Q 2906 1113 2906 1747 
Q 2906 2381 2643 2742 
Q 2381 3103 1925 3103 
Q 1469 3103 1208 2742 
Q 947 2381 947 1747 
z
" transform="scale(0.015625)"/>
     </defs>
     <use xlink:href="#DejaVuSans-61"/>
     <use xlink:href="#DejaVuSans-62" transform="translate(61.279297 0)"/>
     <use xlink:href="#DejaVuSans-68" transform="translate(124.755859 0)"/>
     <use xlink:href="#DejaVuSans-64" transform="translate(188.134766 0)"/>
     <use xlink:href="#DejaVuSans-34" transform="translate(251.611328 0)"/>
    </g>
   </g>
   <g id="text_12">
    <!-- &lt; -->
    <g transform="translate(336.528705 226.476628) scale(0.06 -0.06)">
     <defs>
      <path id="DejaVuSans-3c" d="M 4684 3150 
L 1459 2003 
L 4684 863 
L 4684 294 
L 678 1747 
L 678 2266 
L 4684 3719 
L 4684 3150 
z
" transform="scale(0.015625)"/>
     </defs>
     <use xlink:href="#DejaVuSans-3c"/>
    </g>
   </g>
   <g id="text_13">
    <!-- &lt; -->
    <g transform="translate(343.143227 226.476628) scale(0.06 -0.06)">
     <use xlink:href="#DejaVuSans-3c"/>
    </g>
   </g>
   <g id="text_14">
    <!-- &lt; -->
    <g transform="translate(349.75775 226.476628) scale(0.06 -0.06)">
     <use xlink:href="#DejaVuSans-3c"/>
    </g>
   </g>
   <g id="text_15">
    <!-- &lt; -->
    <g transform="translate(356.372272 226.476628) scale(0.06 -0.06)">
     <use xlink:href="#DejaVuSans-3c"/>
    </g>
   </g>
   <g id="text_16">
    <!-- &lt; -->
    <g transform="translate(362.986794 226.476628) scale(0.06 -0.06)">
     <use xlink:href="#DejaVuSans-3c"/>
    </g>
   </g>
   <g id="text_17">
    <!-- &lt; -->
    <g transform="translate(369.601316 226.476628) scale(0.06 -0.06)">
     <use xlink:href="#DejaVuSans-3c"/>
    </g>
   </g>
   <g id="text_18">
    <!-- &lt; -->
    <g transform="translate(376.215838 226.476628) scale(0.06 -0.06)">
     <use xlink:href="#DejaVuSans-3c"/>
    </g>
   </g>
   <g id="text_19">
    <!-- &lt; -->
    <g transform="translate(382.83036 226.476628) scale(0.06 -0.06)">
     <use xlink:href="#DejaVuSans-3c"/>
    </g>
   </g>
   <g id="text_20">
    <!-- &lt; -->
    <g transform="translate(389.444882 226.476628) scale(0.06 -0.06)">
     <use xlink:href="#DejaVuSans-3c"/>
    </g>
   </g>
   <g id="text_21">
    <!-- &lt; -->
    <g transform="translate(396.059404 226.476628) scale(0.06 -0.06)">
     <use xlink:href="#DejaVuSans-3c"/>
    </g>
   </g>
   <g id="text_22">
    <!-- &lt; -->
    <g transform="translate(402.673926 226.476628) scale(0.06 -0.06)">
     <use xlink:href="#DejaVuSans-3c"/>
    </g>
   </g>
   <g id="text_23">
    <!-- &lt; -->
    <g transform="translate(409.288449 226.476628) scale(0.06 -0.06)">
     <use xlink:href="#DejaVuSans-3c"/>
    </g>
   </g>
   <g id="text_24">
    <!-- &lt; -->
    <g transform="translate(415.902971 226.476628) scale(0.06 -0.06)">
     <use xlink:href="#DejaVuSans-3c"/>
    </g>
   </g>
   <g id="text_25">
    <!-- &lt; -->
    <g transform="translate(422.517493 226.476628) scale(0.06 -0.06)">
     <use xlink:href="#DejaVuSans-3c"/>
    </g>
   </g>
   <g id="text_26">
    <!-- &lt; -->
    <g transform="translate(429.132015 226.476628) scale(0.06 -0.06)">
     <use xlink:href="#DejaVuSans-3c"/>
    </g>
   </g>
   <g id="text_27">
    <!-- &lt; -->
    <g transform="translate(435.746537 226.476628) scale(0.06 -0.06)">
     <use xlink:href="#DejaVuSans-3c"/>
    </g>
   </g>
   <g id="text_28">
    <!-- &lt; -->
    <g transform="translate(442.361059 226.476628) scale(0.06 -0.06)">
     <use xlink:href="#DejaVuSans-3c"/>
    </g>
   </g>
   <g id="text_29">
    <!-- &lt; -->
    <g transform="translate(448.975581 226.476628) scale(0.06 -0.06)">
     <use xlink:href="#DejaVuSans-3c"/>
    </g>
   </g>
   <g id="text_30">
    <!-- &lt; -->
    <g transform="translate(455.590103 226.476628) scale(0.06 -0.06)">
     <use xlink:href="#DejaVuSans-3c"/>
    </g>
   </g>
   <g id="text_31">
    <!-- &lt; -->
    <g transform="translate(462.204625 226.476628) scale(0.06 -0.06)">
     <use xlink:href="#DejaVuSans-3c"/>
    </g>
   </g>
   <g id="text_32">
    <!-- &lt; -->
    <g transform="translate(468.819147 226.476628) scale(0.06 -0.06)">
     <use xlink:href="#DejaVuSans-3c"/>
    </g>
   </g>
   <g id="text_33">
    <!-- &lt; -->
    <g transform="translate(475.43367 226.476628) scale(0.06 -0.06)">
     <use xlink:href="#DejaVuSans-3c"/>
    </g>
   </g>
   <g id="text_34">
    <!-- &lt; -->
    <g transform="translate(482.048192 226.476628) scale(0.06 -0.06)">
     <use xlink:href="#DejaVuSans-3c"/>
    </g>
   </g>
   <g id="text_35">
    <!-- &lt; -->
    <g transform="translate(488.662714 226.476628) scale(0.06 -0.06)">
     <use xlink:href="#DejaVuSans-3c"/>
    </g>
   </g>
   <g id="text_36">
    <!-- &lt; -->
    <g transform="translate(495.277236 226.476628) scale(0.06 -0.06)">
     <use xlink:href="#DejaVuSans-3c"/>
    </g>
   </g>
   <g id="text_37">
    <!-- &lt; -->
    <g transform="translate(501.891758 226.476628) scale(0.06 -0.06)">
     <use xlink:href="#DejaVuSans-3c"/>
    </g>
   </g>
   <g id="text_38">
    <!-- &lt; -->
    <g transform="translate(508.50628 226.476628) scale(0.06 -0.06)">
     <use xlink:href="#DejaVuSans-3c"/>
    </g>
   </g>
   <g id="text_39">
    <!-- or6j1 -->
    <g transform="translate(417.37093 230.940924) scale(0.04 -0.04)">
     <defs>
      <path id="DejaVuSans-6f" d="M 1959 3097 
Q 1497 3097 1228 2736 
Q 959 2375 959 1747 
Q 959 1119 1226 758 
Q 1494 397 1959 397 
Q 2419 397 2687 759 
Q 2956 1122 2956 1747 
Q 2956 2369 2687 2733 
Q 2419 3097 1959 3097 
z
M 1959 3584 
Q 2709 3584 3137 3096 
Q 3566 2609 3566 1747 
Q 3566 888 3137 398 
Q 2709 -91 1959 -91 
Q 1206 -91 779 398 
Q 353 888 353 1747 
Q 353 2609 779 3096 
Q 1206 3584 1959 3584 
z
" transform="scale(0.015625)"/>
      <path id="DejaVuSans-72" d="M 2631 2963 
Q 2534 3019 2420 3045 
Q 2306 3072 2169 3072 
Q 1681 3072 1420 2755 
Q 1159 2438 1159 1844 
L 1159 0 
L 581 0 
L 581 3500 
L 1159 3500 
L 1159 2956 
Q 1341 3275 1631 3429 
Q 1922 3584 2338 3584 
Q 2397 3584 2469 3576 
Q 2541 3569 2628 3553 
L 2631 2963 
z
" transform="scale(0.015625)"/>
      <path id="DejaVuSans-6a" d="M 603 3500 
L 1178 3500 
L 1178 -63 
Q 1178 -731 923 -1031 
Q 669 -1331 103 -1331 
L -116 -1331 
L -116 -844 
L 38 -844 
Q 366 -844 484 -692 
Q 603 -541 603 -63 
L 603 3500 
z
M 603 4863 
L 1178 4863 
L 1178 4134 
L 603 4134 
L 603 4863 
z
" transform="scale(0.015625)"/>
     </defs>
     <use xlink:href="#DejaVuSans-6f"/>
     <use xlink:href="#DejaVuSans-72" transform="translate(61.181641 0)"/>
     <use xlink:href="#DejaVuSans-36" transform="translate(102.294922 0)"/>
     <use xlink:href="#DejaVuSans-6a" transform="translate(165.917969 0)"/>
     <use xlink:href="#DejaVuSans-31" transform="translate(193.701172 0)"/>
    </g>
   </g>
   <g id="text_40">
    <!-- gencode.v47.annotation.gtf.gz -->
    <g transform="translate(72.713594 221.180457) scale(0.04 -0.04)">
     <defs>
      <path id="DejaVuSans-67" d="M 2906 1791 
Q 2906 2416 2648 2759 
Q 2391 3103 1925 3103 
Q 1463 3103 1205 2759 
Q 947 2416 947 1791 
Q 947 1169 1205 825 
Q 1463 481 1925 481 
Q 2391 481 2648 825 
Q 2906 1169 2906 1791 
z
M 3481 434 
Q 3481 -459 3084 -895 
Q 2688 -1331 1869 -1331 
Q 1566 -1331 1297 -1286 
Q 1028 -1241 775 -1147 
L 775 -588 
Q 1028 -725 1275 -790 
Q 1522 -856 1778 -856 
Q 2344 -856 2625 -561 
Q 2906 -266 2906 331 
L 2906 616 
Q 2728 306 2450 153 
Q 2172 0 1784 0 
Q 1141 0 747 490 
Q 353 981 353 1791 
Q 353 2603 747 3093 
Q 1141 3584 1784 3584 
Q 2172 3584 2450 3431 
Q 2728 3278 2906 2969 
L 2906 3500 
L 3481 3500 
L 3481 434 
z
" transform="scale(0.015625)"/>
      <path id="DejaVuSans-65" d="M 3597 1894 
L 3597 1613 
L 953 1613 
Q 991 1019 1311 708 
Q 1631 397 2203 397 
Q 2534 397 2845 478 
Q 3156 559 3463 722 
L 3463 178 
Q 3153 47 2828 -22 
Q 2503 -91 2169 -91 
Q 1331 -91 842 396 
Q 353 884 353 1716 
Q 353 2575 817 3079 
Q 1281 3584 2069 3584 
Q 2775 3584 3186 3129 
Q 3597 2675 3597 1894 
z
M 3022 2063 
Q 3016 2534 2758 2815 
Q 2500 3097 2075 3097 
Q 1594 3097 1305 2825 
Q 1016 2553 972 2059 
L 3022 2063 
z
" transform="scale(0.015625)"/>
      <path id="DejaVuSans-6e" d="M 3513 2113 
L 3513 0 
L 2938 0 
L 2938 2094 
Q 2938 2591 2744 2837 
Q 2550 3084 2163 3084 
Q 1697 3084 1428 2787 
Q 1159 2491 1159 1978 
L 1159 0 
L 581 0 
L 581 3500 
L 1159 3500 
L 1159 2956 
Q 1366 3272 1645 3428 
Q 1925 3584 2291 3584 
Q 2894 3584 3203 3211 
Q 3513 2838 3513 2113 
z
" transform="scale(0.015625)"/>
      <path id="DejaVuSans-63" d="M 3122 3366 
L 3122 2828 
Q 2878 2963 2633 3030 
Q 2388 3097 2138 3097 
Q 1578 3097 1268 2742 
Q 959 2388 959 1747 
Q 959 1106 1268 751 
Q 1578 397 2138 397 
Q 2388 397 2633 464 
Q 2878 531 3122 666 
L 3122 134 
Q 2881 22 2623 -34 
Q 2366 -91 2075 -91 
Q 1284 -91 818 406 
Q 353 903 353 1747 
Q 353 2603 823 3093 
Q 1294 3584 2113 3584 
Q 2378 3584 2631 3529 
Q 2884 3475 3122 3366 
z
" transform="scale(0.015625)"/>
      <path id="DejaVuSans-2e" d="M 684 794 
L 1344 794 
L 1344 0 
L 684 0 
L 684 794 
z
" transform="scale(0.015625)"/>
      <path id="DejaVuSans-76" d="M 191 3500 
L 800 3500 
L 1894 563 
L 2988 3500 
L 3597 3500 
L 2284 0 
L 1503 0 
L 191 3500 
z
" transform="scale(0.015625)"/>
      <path id="DejaVuSans-37" d="M 525 4666 
L 3525 4666 
L 3525 4397 
L 1831 0 
L 1172 0 
L 2766 4134 
L 525 4134 
L 525 4666 
z
" transform="scale(0.015625)"/>
      <path id="DejaVuSans-74" d="M 1172 4494 
L 1172 3500 
L 2356 3500 
L 2356 3053 
L 1172 3053 
L 1172 1153 
Q 1172 725 1289 603 
Q 1406 481 1766 481 
L 2356 481 
L 2356 0 
L 1766 0 
Q 1100 0 847 248 
Q 594 497 594 1153 
L 594 3053 
L 172 3053 
L 172 3500 
L 594 3500 
L 594 4494 
L 1172 4494 
z
" transform="scale(0.015625)"/>
      <path id="DejaVuSans-69" d="M 603 3500 
L 1178 3500 
L 1178 0 
L 603 0 
L 603 3500 
z
M 603 4863 
L 1178 4863 
L 1178 4134 
L 603 4134 
L 603 4863 
z
" transform="scale(0.015625)"/>
      <path id="DejaVuSans-66" d="M 2375 4863 
L 2375 4384 
L 1825 4384 
Q 1516 4384 1395 4259 
Q 1275 4134 1275 3809 
L 1275 3500 
L 2222 3500 
L 2222 3053 
L 1275 3053 
L 1275 0 
L 697 0 
L 697 3053 
L 147 3053 
L 147 3500 
L 697 3500 
L 697 3744 
Q 697 4328 969 4595 
Q 1241 4863 1831 4863 
L 2375 4863 
z
" transform="scale(0.015625)"/>
      <path id="DejaVuSans-7a" d="M 353 3500 
L 3084 3500 
L 3084 2975 
L 922 459 
L 3084 459 
L 3084 0 
L 275 0 
L 275 525 
L 2438 3041 
L 353 3041 
L 353 3500 
z
" transform="scale(0.015625)"/>
     </defs>
     <use xlink:href="#DejaVuSans-67"/>
     <use xlink:href="#DejaVuSans-65" transform="translate(63.476562 0)"/>
     <use xlink:href="#DejaVuSans-6e" transform="translate(125 0)"/>
     <use xlink:href="#DejaVuSans-63" transform="translate(188.378906 0)"/>
     <use xlink:href="#DejaVuSans-6f" transform="translate(243.359375 0)"/>
     <use xlink:href="#DejaVuSans-64" transform="translate(304.541016 0)"/>
     <use xlink:href="#DejaVuSans-65" transform="translate(368.017578 0)"/>
     <use xlink:href="#DejaVuSans-2e" transform="translate(429.541016 0)"/>
     <use xlink:href="#DejaVuSans-76" transform="translate(461.328125 0)"/>
     <use xlink:href="#DejaVuSans-34" transform="translate(520.507812 0)"/>
     <use xlink:href="#DejaVuSans-37" transform="translate(584.130859 0)"/>
     <use xlink:href="#DejaVuSans-2e" transform="translate(647.753906 0)"/>
     <use xlink:href="#DejaVuSans-61" transform="translate(679.541016 0)"/>
     <use xlink:href="#DejaVuSans-6e" transform="translate(740.820312 0)"/>
     <use xlink:href="#DejaVuSans-6e" transform="translate(804.199219 0)"/>
     <use xlink:href="#DejaVuSans-6f" transform="translate(867.578125 0)"/>
     <use xlink:href="#DejaVuSans-74" transform="translate(928.759766 0)"/>
     <use xlink:href="#DejaVuSans-61" transform="translate(967.96875 0)"/>
     <use xlink:href="#DejaVuSans-74" transform="translate(1029.248047 0)"/>
     <use xlink:href="#DejaVuSans-69" transform="translate(1068.457031 0)"/>
     <use xlink:href="#DejaVuSans-6f" transform="translate(1096.240234 0)"/>
     <use xlink:href="#DejaVuSans-6e" transform="translate(1157.421875 0)"/>
     <use xlink:href="#DejaVuSans-2e" transform="translate(1220.800781 0)"/>
     <use xlink:href="#DejaVuSans-67" transform="translate(1252.587891 0)"/>
     <use xlink:href="#DejaVuSans-74" transform="translate(1316.064453 0)"/>
     <use xlink:href="#DejaVuSans-66" transform="translate(1355.273438 0)"/>
     <use xlink:href="#DejaVuSans-2e" transform="translate(1383.228516 0)"/>
     <use xlink:href="#DejaVuSans-67" transform="translate(1415.015625 0)"/>
     <use xlink:href="#DejaVuSans-7a" transform="translate(1478.492188 0)"/>
    </g>
   </g>
   <g id="text_41">
    <!-- &lt; -->
    <g transform="translate(140.656459 210.851592) scale(0.06 -0.06)">
     <use xlink:href="#DejaVuSans-3c"/>
    </g>
   </g>
   <g id="text_42">
    <!-- &lt; -->
    <g transform="translate(147.192794 210.851592) scale(0.06 -0.06)">
     <use xlink:href="#DejaVuSans-3c"/>
    </g>
   </g>
   <g id="text_43">
    <!-- &lt; -->
    <g transform="translate(153.729129 210.851592) scale(0.06 -0.06)">
     <use xlink:href="#DejaVuSans-3c"/>
    </g>
   </g>
   <g id="text_44">
    <!-- &lt; -->
    <g transform="translate(160.265464 210.851592) scale(0.06 -0.06)">
     <use xlink:href="#DejaVuSans-3c"/>
    </g>
   </g>
   <g id="text_45">
    <!-- &lt; -->
    <g transform="translate(166.801799 210.851592) scale(0.06 -0.06)">
     <use xlink:href="#DejaVuSans-3c"/>
    </g>
   </g>
   <g id="text_46">
    <!-- &lt; -->
    <g transform="translate(173.338135 210.851592) scale(0.06 -0.06)">
     <use xlink:href="#DejaVuSans-3c"/>
    </g>
   </g>
   <g id="text_47">
    <!-- &lt; -->
    <g transform="translate(179.87447 210.851592) scale(0.06 -0.06)">
     <use xlink:href="#DejaVuSans-3c"/>
    </g>
   </g>
   <g id="text_48">
    <!-- &lt; -->
    <g transform="translate(186.410805 210.851592) scale(0.06 -0.06)">
     <use xlink:href="#DejaVuSans-3c"/>
    </g>
   </g>
   <g id="text_49">
    <!-- &lt; -->
    <g transform="translate(192.94714 210.851592) scale(0.06 -0.06)">
     <use xlink:href="#DejaVuSans-3c"/>
    </g>
   </g>
   <g id="text_50">
    <!-- &lt; -->
    <g transform="translate(199.483475 210.851592) scale(0.06 -0.06)">
     <use xlink:href="#DejaVuSans-3c"/>
    </g>
   </g>
   <g id="text_51">
    <!-- &lt; -->
    <g transform="translate(206.01981 210.851592) scale(0.06 -0.06)">
     <use xlink:href="#DejaVuSans-3c"/>
    </g>
   </g>
   <g id="text_52">
    <!-- &lt; -->
    <g transform="translate(212.556145 210.851592) scale(0.06 -0.06)">
     <use xlink:href="#DejaVuSans-3c"/>
    </g>
   </g>
   <g id="text_53">
    <!-- L1PA4 -->
    <g transform="translate(173.768532 215.315888) scale(0.04 -0.04)">
     <defs>
      <path id="DejaVuSans-4c" d="M 628 4666 
L 1259 4666 
L 1259 531 
L 3531 531 
L 3531 0 
L 628 0 
L 628 4666 
z
" transform="scale(0.015625)"/>
      <path id="DejaVuSans-50" d="M 1259 4147 
L 1259 2394 
L 2053 2394 
Q 2494 2394 2734 2622 
Q 2975 2850 2975 3272 
Q 2975 3691 2734 3919 
Q 2494 4147 2053 4147 
L 1259 4147 
z
M 628 4666 
L 2053 4666 
Q 2838 4666 3239 4311 
Q 3641 3956 3641 3272 
Q 3641 2581 3239 2228 
Q 2838 1875 2053 1875 
L 1259 1875 
L 1259 0 
L 628 0 
L 628 4666 
z
" transform="scale(0.015625)"/>
      <path id="DejaVuSans-41" d="M 2188 4044 
L 1331 1722 
L 3047 1722 
L 2188 4044 
z
M 1831 4666 
L 2547 4666 
L 4325 0 
L 3669 0 
L 3244 1197 
L 1141 1197 
L 716 0 
L 50 0 
L 1831 4666 
z
" transform="scale(0.015625)"/>
     </defs>
     <use xlink:href="#DejaVuSans-4c"/>
     <use xlink:href="#DejaVuSans-31" transform="translate(55.712891 0)"/>
     <use xlink:href="#DejaVuSans-50" transform="translate(119.335938 0)"/>
     <use xlink:href="#DejaVuSans-41" transform="translate(173.263672 0)"/>
     <use xlink:href="#DejaVuSans-34" transform="translate(241.671875 0)"/>
    </g>
   </g>
   <g id="text_54">
    <!-- transposable_elements_2kb.bed.gz -->
    <g transform="translate(72.713594 205.444171) scale(0.04 -0.04)">
     <defs>
      <path id="DejaVuSans-73" d="M 2834 3397 
L 2834 2853 
Q 2591 2978 2328 3040 
Q 2066 3103 1784 3103 
Q 1356 3103 1142 2972 
Q 928 2841 928 2578 
Q 928 2378 1081 2264 
Q 1234 2150 1697 2047 
L 1894 2003 
Q 2506 1872 2764 1633 
Q 3022 1394 3022 966 
Q 3022 478 2636 193 
Q 2250 -91 1575 -91 
Q 1294 -91 989 -36 
Q 684 19 347 128 
L 347 722 
Q 666 556 975 473 
Q 1284 391 1588 391 
Q 1994 391 2212 530 
Q 2431 669 2431 922 
Q 2431 1156 2273 1281 
Q 2116 1406 1581 1522 
L 1381 1569 
Q 847 1681 609 1914 
Q 372 2147 372 2553 
Q 372 3047 722 3315 
Q 1072 3584 1716 3584 
Q 2034 3584 2315 3537 
Q 2597 3491 2834 3397 
z
" transform="scale(0.015625)"/>
      <path id="DejaVuSans-6c" d="M 603 4863 
L 1178 4863 
L 1178 0 
L 603 0 
L 603 4863 
z
" transform="scale(0.015625)"/>
      <path id="DejaVuSans-5f" d="M 3263 -1063 
L 3263 -1509 
L -63 -1509 
L -63 -1063 
L 3263 -1063 
z
" transform="scale(0.015625)"/>
      <path id="DejaVuSans-6d" d="M 3328 2828 
Q 3544 3216 3844 3400 
Q 4144 3584 4550 3584 
Q 5097 3584 5394 3201 
Q 5691 2819 5691 2113 
L 5691 0 
L 5113 0 
L 5113 2094 
Q 5113 2597 4934 2840 
Q 4756 3084 4391 3084 
Q 3944 3084 3684 2787 
Q 3425 2491 3425 1978 
L 3425 0 
L 2847 0 
L 2847 2094 
Q 2847 2600 2669 2842 
Q 2491 3084 2119 3084 
Q 1678 3084 1418 2786 
Q 1159 2488 1159 1978 
L 1159 0 
L 581 0 
L 581 3500 
L 1159 3500 
L 1159 2956 
Q 1356 3278 1631 3431 
Q 1906 3584 2284 3584 
Q 2666 3584 2933 3390 
Q 3200 3197 3328 2828 
z
" transform="scale(0.015625)"/>
     </defs>
     <use xlink:href="#DejaVuSans-74"/>
     <use xlink:href="#DejaVuSans-72" transform="translate(39.208984 0)"/>
     <use xlink:href="#DejaVuSans-61" transform="translate(80.322266 0)"/>
     <use xlink:href="#DejaVuSans-6e" transform="translate(141.601562 0)"/>
     <use xlink:href="#DejaVuSans-73" transform="translate(204.980469 0)"/>
     <use xlink:href="#DejaVuSans-70" transform="translate(257.080078 0)"/>
     <use xlink:href="#DejaVuSans-6f" transform="translate(320.556641 0)"/>
     <use xlink:href="#DejaVuSans-73" transform="translate(381.738281 0)"/>
     <use xlink:href="#DejaVuSans-61" transform="translate(433.837891 0)"/>
     <use xlink:href="#DejaVuSans-62" transform="translate(495.117188 0)"/>
     <use xlink:href="#DejaVuSans-6c" transform="translate(558.59375 0)"/>
     <use xlink:href="#DejaVuSans-65" transform="translate(586.376953 0)"/>
     <use xlink:href="#DejaVuSans-5f" transform="translate(647.900391 0)"/>
     <use xlink:href="#DejaVuSans-65" transform="translate(697.900391 0)"/>
     <use xlink:href="#DejaVuSans-6c" transform="translate(759.423828 0)"/>
     <use xlink:href="#DejaVuSans-65" transform="translate(787.207031 0)"/>
     <use xlink:href="#DejaVuSans-6d" transform="translate(848.730469 0)"/>
     <use xlink:href="#DejaVuSans-65" transform="translate(946.142578 0)"/>
     <use xlink:href="#DejaVuSans-6e" transform="translate(1007.666016 0)"/>
     <use xlink:href="#DejaVuSans-74" transform="translate(1071.044922 0)"/>
     <use xlink:href="#DejaVuSans-73" transform="translate(1110.253906 0)"/>
     <use xlink:href="#DejaVuSans-5f" transform="translate(1162.353516 0)"/>
     <use xlink:href="#DejaVuSans-32" transform="translate(1212.353516 0)"/>
     <use xlink:href="#DejaVuSans-6b" transform="translate(1275.976562 0)"/>
     <use xlink:href="#DejaVuSans-62" transform="translate(1333.886719 0)"/>
     <use xlink:href="#DejaVuSans-2e" transform="translate(1397.363281 0)"/>
     <use xlink:href="#DejaVuSans-62" transform="translate(1429.150391 0)"/>
     <use xlink:href="#DejaVuSans-65" transform="translate(1492.626953 0)"/>
     <use xlink:href="#DejaVuSans-64" transform="translate(1554.150391 0)"/>
     <use xlink:href="#DejaVuSans-2e" transform="translate(1617.626953 0)"/>
     <use xlink:href="#DejaVuSans-67" transform="translate(1649.414062 0)"/>
     <use xlink:href="#DejaVuSans-7a" transform="translate(1712.890625 0)"/>
    </g>
   </g>
   <g id="text_55">
    <!-- repeatmasker.bed.gz -->
    <g transform="translate(72.713594 189.930385) scale(0.04 -0.04)">
     <use xlink:href="#DejaVuSans-72"/>
     <use xlink:href="#DejaVuSans-65" transform="translate(38.863281 0)"/>
     <use xlink:href="#DejaVuSans-70" transform="translate(100.386719 0)"/>
     <use xlink:href="#DejaVuSans-65" transform="translate(163.863281 0)"/>
     <use xlink:href="#DejaVuSans-61" transform="translate(225.386719 0)"/>
     <use xlink:href="#DejaVuSans-74" transform="translate(286.666016 0)"/>
     <use xlink:href="#DejaVuSans-6d" transform="translate(325.875 0)"/>
     <use xlink:href="#DejaVuSans-61" transform="translate(423.287109 0)"/>
     <use xlink:href="#DejaVuSans-73" transform="translate(484.566406 0)"/>
     <use xlink:href="#DejaVuSans-6b" transform="translate(536.666016 0)"/>
     <use xlink:href="#DejaVuSans-65" transform="translate(590.951172 0)"/>
     <use xlink:href="#DejaVuSans-72" transform="translate(652.474609 0)"/>
     <use xlink:href="#DejaVuSans-2e" transform="translate(684.462891 0)"/>
     <use xlink:href="#DejaVuSans-62" transform="translate(716.25 0)"/>
     <use xlink:href="#DejaVuSans-65" transform="translate(779.726562 0)"/>
     <use xlink:href="#DejaVuSans-64" transform="translate(841.25 0)"/>
     <use xlink:href="#DejaVuSans-2e" transform="translate(904.726562 0)"/>
     <use xlink:href="#DejaVuSans-67" transform="translate(936.513672 0)"/>
     <use xlink:href="#DejaVuSans-7a" transform="translate(999.990234 0)"/>
    </g>
   </g>
   <g id="text_56">
    <!-- Ref -->
    <g transform="translate(21.448569 51.066999) scale(0.07 -0.07)">
     <defs>
      <path id="DejaVuSans-52" d="M 2841 2188 
Q 3044 2119 3236 1894 
Q 3428 1669 3622 1275 
L 4263 0 
L 3584 0 
L 2988 1197 
Q 2756 1666 2539 1819 
Q 2322 1972 1947 1972 
L 1259 1972 
L 1259 0 
L 628 0 
L 628 4666 
L 2053 4666 
Q 2853 4666 3247 4331 
Q 3641 3997 3641 3322 
Q 3641 2881 3436 2590 
Q 3231 2300 2841 2188 
z
M 1259 4147 
L 1259 2491 
L 2053 2491 
Q 2509 2491 2742 2702 
Q 2975 2913 2975 3322 
Q 2975 3731 2742 3939 
Q 2509 4147 2053 4147 
L 1259 4147 
z
" transform="scale(0.015625)"/>
     </defs>
     <use xlink:href="#DejaVuSans-52"/>
     <use xlink:href="#DejaVuSans-65" transform="translate(64.982422 0)"/>
     <use xlink:href="#DejaVuSans-66" transform="translate(126.505859 0)"/>
    </g>
   </g>
   <g id="text_57">
    <!-- A -->
    <g transform="translate(236.145065 53.27758) scale(0.07 -0.07)">
     <use xlink:href="#DejaVuSans-41"/>
    </g>
   </g>
   <g id="text_58">
    <!-- B -->
    <g transform="translate(411.395442 53.27758) scale(0.07 -0.07)">
     <defs>
      <path id="DejaVuSans-42" d="M 1259 2228 
L 1259 519 
L 2272 519 
Q 2781 519 3026 730 
Q 3272 941 3272 1375 
Q 3272 1813 3026 2020 
Q 2781 2228 2272 2228 
L 1259 2228 
z
M 1259 4147 
L 1259 2741 
L 2194 2741 
Q 2656 2741 2882 2914 
Q 3109 3088 3109 3444 
Q 3109 3797 2882 3972 
Q 2656 4147 2194 4147 
L 1259 4147 
z
M 628 4666 
L 2241 4666 
Q 2963 4666 3353 4366 
Q 3744 4066 3744 3513 
Q 3744 3084 3544 2831 
Q 3344 2578 2956 2516 
Q 3422 2416 3680 2098 
Q 3938 1781 3938 1306 
Q 3938 681 3513 340 
Q 3088 0 2303 0 
L 628 0 
L 628 4666 
z
" transform="scale(0.015625)"/>
     </defs>
     <use xlink:href="#DejaVuSans-42"/>
    </g>
   </g>
   <g id="text_59">
    <!-- C -->
    <g transform="translate(433.760085 43.53868) scale(0.04 -0.04)">
     <defs>
      <path id="DejaVuSans-43" d="M 4122 4306 
L 4122 3641 
Q 3803 3938 3442 4084 
Q 3081 4231 2675 4231 
Q 1875 4231 1450 3742 
Q 1025 3253 1025 2328 
Q 1025 1406 1450 917 
Q 1875 428 2675 428 
Q 3081 428 3442 575 
Q 3803 722 4122 1019 
L 4122 359 
Q 3791 134 3420 21 
Q 3050 -91 2638 -91 
Q 1578 -91 968 557 
Q 359 1206 359 2328 
Q 359 3453 968 4101 
Q 1578 4750 2638 4750 
Q 3056 4750 3426 4639 
Q 3797 4528 4122 4306 
z
" transform="scale(0.015625)"/>
     </defs>
     <use xlink:href="#DejaVuSans-43"/>
    </g>
   </g>
   <g id="text_60">
    <!-- D -->
    <g transform="translate(441.839548 43.53868) scale(0.04 -0.04)">
     <defs>
      <path id="DejaVuSans-44" d="M 1259 4147 
L 1259 519 
L 2022 519 
Q 2988 519 3436 956 
Q 3884 1394 3884 2338 
Q 3884 3275 3436 3711 
Q 2988 4147 2022 4147 
L 1259 4147 
z
M 628 4666 
L 1925 4666 
Q 3281 4666 3915 4102 
Q 4550 3538 4550 2338 
Q 4550 1131 3912 565 
Q 3275 0 1925 0 
L 628 0 
L 628 4666 
z
" transform="scale(0.015625)"/>
     </defs>
     <use xlink:href="#DejaVuSans-44"/>
    </g>
   </g>
   <g id="text_61">
    <!-- E -->
    <g transform="translate(568.136946 53.27758) scale(0.07 -0.07)">
     <defs>
      <path id="DejaVuSans-45" d="M 628 4666 
L 3578 4666 
L 3578 4134 
L 1259 4134 
L 1259 2753 
L 3481 2753 
L 3481 2222 
L 1259 2222 
L 1259 531 
L 3634 531 
L 3634 0 
L 628 0 
L 628 4666 
z
" transform="scale(0.015625)"/>
     </defs>
     <use xlink:href="#DejaVuSans-45"/>
    </g>
   </g>
   <g id="text_62">
    <!-- chr14:22610338-22660354 (50 kbp) -->
    <g transform="translate(329.132891 30) scale(0.07 -0.07)">
     <defs>
      <path id="DejaVuSans-3a" d="M 750 794 
L 1409 794 
L 1409 0 
L 750 0 
L 750 794 
z
M 750 3309 
L 1409 3309 
L 1409 2516 
L 750 2516 
L 750 3309 
z
" transform="scale(0.015625)"/>
      <path id="DejaVuSans-38" d="M 2034 2216 
Q 1584 2216 1326 1975 
Q 1069 1734 1069 1313 
Q 1069 891 1326 650 
Q 1584 409 2034 409 
Q 2484 409 2743 651 
Q 3003 894 3003 1313 
Q 3003 1734 2745 1975 
Q 2488 2216 2034 2216 
z
M 1403 2484 
Q 997 2584 770 2862 
Q 544 3141 544 3541 
Q 544 4100 942 4425 
Q 1341 4750 2034 4750 
Q 2731 4750 3128 4425 
Q 3525 4100 3525 3541 
Q 3525 3141 3298 2862 
Q 3072 2584 2669 2484 
Q 3125 2378 3379 2068 
Q 3634 1759 3634 1313 
Q 3634 634 3220 271 
Q 2806 -91 2034 -91 
Q 1263 -91 848 271 
Q 434 634 434 1313 
Q 434 1759 690 2068 
Q 947 2378 1403 2484 
z
M 1172 3481 
Q 1172 3119 1398 2916 
Q 1625 2713 2034 2713 
Q 2441 2713 2670 2916 
Q 2900 3119 2900 3481 
Q 2900 3844 2670 4047 
Q 2441 4250 2034 4250 
Q 1625 4250 1398 4047 
Q 1172 3844 1172 3481 
z
" transform="scale(0.015625)"/>
      <path id="DejaVuSans-2d" d="M 313 2009 
L 1997 2009 
L 1997 1497 
L 313 1497 
L 313 2009 
z
" transform="scale(0.015625)"/>
      <path id="DejaVuSans-28" d="M 1984 4856 
Q 1566 4138 1362 3434 
Q 1159 2731 1159 2009 
Q 1159 1288 1364 580 
Q 1569 -128 1984 -844 
L 1484 -844 
Q 1016 -109 783 600 
Q 550 1309 550 2009 
Q 550 2706 781 3412 
Q 1013 4119 1484 4856 
L 1984 4856 
z
" transform="scale(0.015625)"/>
      <path id="DejaVuSans-29" d="M 513 4856 
L 1013 4856 
Q 1481 4119 1714 3412 
Q 1947 2706 1947 2009 
Q 1947 1309 1714 600 
Q 1481 -109 1013 -844 
L 513 -844 
Q 928 -128 1133 580 
Q 1338 1288 1338 2009 
Q 1338 2731 1133 3434 
Q 928 4138 513 4856 
z
" transform="scale(0.015625)"/>
     </defs>
     <use xlink:href="#DejaVuSans-63"/>
     <use xlink:href="#DejaVuSans-68" transform="translate(54.980469 0)"/>
     <use xlink:href="#DejaVuSans-72" transform="translate(118.359375 0)"/>
     <use xlink:href="#DejaVuSans-31" transform="translate(159.472656 0)"/>
     <use xlink:href="#DejaVuSans-34" transform="translate(223.095703 0)"/>
     <use xlink:href="#DejaVuSans-3a" transform="translate(286.71875 0)"/>
     <use xlink:href="#DejaVuSans-32" transform="translate(320.410156 0)"/>
     <use xlink:href="#DejaVuSans-32" transform="translate(384.033203 0)"/>
     <use xlink:href="#DejaVuSans-36" transform="translate(447.65625 0)"/>
     <use xlink:href="#DejaVuSans-31" transform="translate(511.279297 0)"/>
     <use xlink:href="#DejaVuSans-30" transform="translate(574.902344 0)"/>
     <use xlink:href="#DejaVuSans-33" transform="translate(638.525391 0)"/>
     <use xlink:href="#DejaVuSans-33" transform="translate(702.148438 0)"/>
     <use xlink:href="#DejaVuSans-38" transform="translate(765.771484 0)"/>
     <use xlink:href="#DejaVuSans-2d" transform="translate(829.394531 0)"/>
     <use xlink:href="#DejaVuSans-32" transform="translate(865.478516 0)"/>
     <use xlink:href="#DejaVuSans-32" transform="translate(929.101562 0)"/>
     <use xlink:href="#DejaVuSans-36" transform="translate(992.724609 0)"/>
     <use xlink:href="#DejaVuSans-36" transform="translate(1056.347656 0)"/>
     <use xlink:href="#DejaVuSans-30" transform="translate(1119.970703 0)"/>
     <use xlink:href="#DejaVuSans-33" transform="translate(1183.59375 0)"/>
     <use xlink:href="#DejaVuSans-35" transform="translate(1247.216797 0)"/>
     <use xlink:href="#DejaVuSans-34" transform="translate(1310.839844 0)"/>
     <use xlink:href="#DejaVuSans-20" transform="translate(1374.462891 0)"/>
     <use xlink:href="#DejaVuSans-28" transform="translate(1406.25 0)"/>
     <use xlink:href="#DejaVuSans-35" transform="translate(1445.263672 0)"/>
     <use xlink:href="#DejaVuSans-30" transform="translate(1508.886719 0)"/>
     <use xlink:href="#DejaVuSans-20" transform="translate(1572.509766 0)"/>
     <use xlink:href="#DejaVuSans-6b" transform="translate(1604.296875 0)"/>
     <use xlink:href="#DejaVuSans-62" transform="translate(1662.207031 0)"/>
     <use xlink:href="#DejaVuSans-70" transform="translate(1725.683594 0)"/>
     <use xlink:href="#DejaVuSans-29" transform="translate(1789.160156 0)"/>
    </g>
   </g>
  </g>
  <g id="axes_2">
   <g id="patch_121">
    <path d="M 8.64 360 
L 777.6 360 
L 777.6 287.008761 
L 8.64 287.008761 
z
" style="fill: #ffffff"/>
   </g>
   <g id="patch_122">
    <path d="M 8.64 287.008761 
L 18.8928 287.008761 
L 34.272 291.570713 
L 18.8928 296.132666 
L 8.64 296.132666 
z
" clip-path="url(#p5ad265272e)" style="fill: #1f77b4; stroke: #1f77b4; stroke-width: 0.5; stroke-linejoin: miter"/>
   </g>
   <g id="patch_123">
    <path d="M 34.272 287.008761 
L 44.5248 287.008761 
L 59.904 291.570713 
L 44.5248 296.132666 
L 34.272 296.132666 
z
" clip-path="url(#p5ad265272e)" style="fill: #2ca02c; stroke: #2ca02c; stroke-width: 0.5; stroke-linejoin: miter"/>
   </g>
   <g id="patch_124">
    <path d="M 59.904 287.008761 
L 70.1568 287.008761 
L 85.536 291.570713 
L 70.1568 296.132666 
L 59.904 296.132666 
z
" clip-path="url(#p5ad265272e)" style="fill: #9467bd; stroke: #9467bd; stroke-width: 0.5; stroke-linejoin: miter"/>
   </g>
   <g id="patch_125">
    <path d="M 85.536 287.008761 
L 95.7888 287.008761 
L 111.168 291.570713 
L 95.7888 296.132666 
L 85.536 296.132666 
z
" clip-path="url(#p5ad265272e)" style="fill: #e377c2; stroke: #e377c2; stroke-width: 0.5; stroke-linejoin: miter"/>
   </g>
   <g id="patch_126">
    <path d="M 111.168 287.008761 
L 121.4208 287.008761 
L 136.8 291.570713 
L 121.4208 296.132666 
L 111.168 296.132666 
z
" clip-path="url(#p5ad265272e)" style="fill: #9edae5; stroke: #9edae5; stroke-width: 0.5; stroke-linejoin: miter"/>
   </g>
   <g id="patch_127">
    <path d="M 8.64 328.066333 
L 18.8928 328.066333 
L 34.272 332.628285 
L 18.8928 337.190238 
L 8.64 337.190238 
z
" clip-path="url(#p5ad265272e)" style="fill: #1f77b4; stroke: #1f77b4; stroke-width: 0.5; stroke-linejoin: miter"/>
   </g>
   <g id="patch_128">
    <path d="M 34.272 328.066333 
L 44.5248 328.066333 
L 59.904 332.628285 
L 44.5248 337.190238 
L 34.272 337.190238 
z
" clip-path="url(#p5ad265272e)" style="fill: #9467bd; stroke: #9467bd; stroke-width: 0.5; stroke-linejoin: miter"/>
   </g>
   <g id="patch_129">
    <path d="M 59.904 328.066333 
L 70.1568 328.066333 
L 85.536 332.628285 
L 70.1568 337.190238 
L 59.904 337.190238 
z
" clip-path="url(#p5ad265272e)" style="fill: #9edae5; stroke: #9edae5; stroke-width: 0.5; stroke-linejoin: miter"/>
   </g>
   <g id="matplotlib.axis_3"/>
   <g id="matplotlib.axis_4"/>
   <g id="text_63">
    <!-- A -->
    <g transform="translate(11.372181 294.642764) scale(0.07 -0.07)">
     <use xlink:href="#DejaVuSans-41"/>
    </g>
   </g>
   <g id="text_64">
    <!-- B -->
    <g transform="translate(36.997072 294.642764) scale(0.07 -0.07)">
     <use xlink:href="#DejaVuSans-42"/>
    </g>
   </g>
   <g id="text_65">
    <!-- C -->
    <g transform="translate(62.586416 294.642764) scale(0.07 -0.07)">
     <use xlink:href="#DejaVuSans-43"/>
    </g>
   </g>
   <g id="text_66">
    <!-- D -->
    <g transform="translate(87.9674 294.642764) scale(0.07 -0.07)">
     <use xlink:href="#DejaVuSans-44"/>
    </g>
   </g>
   <g id="text_67">
    <!-- E -->
    <g transform="translate(114.082837 294.642764) scale(0.07 -0.07)">
     <use xlink:href="#DejaVuSans-45"/>
    </g>
   </g>
   <g id="text_68">
    <!-- Reference path: -->
    <g transform="translate(8.64 282.446809) scale(0.07 -0.07)">
     <use xlink:href="#DejaVuSans-52"/>
     <use xlink:href="#DejaVuSans-65" transform="translate(64.982422 0)"/>
     <use xlink:href="#DejaVuSans-66" transform="translate(126.505859 0)"/>
     <use xlink:href="#DejaVuSans-65" transform="translate(161.710938 0)"/>
     <use xlink:href="#DejaVuSans-72" transform="translate(223.234375 0)"/>
     <use xlink:href="#DejaVuSans-65" transform="translate(262.097656 0)"/>
     <use xlink:href="#DejaVuSans-6e" transform="translate(323.621094 0)"/>
     <use xlink:href="#DejaVuSans-63" transform="translate(387 0)"/>
     <use xlink:href="#DejaVuSans-65" transform="translate(441.980469 0)"/>
     <use xlink:href="#DejaVuSans-20" transform="translate(503.503906 0)"/>
     <use xlink:href="#DejaVuSans-70" transform="translate(535.291016 0)"/>
     <use xlink:href="#DejaVuSans-61" transform="translate(598.767578 0)"/>
     <use xlink:href="#DejaVuSans-74" transform="translate(660.046875 0)"/>
     <use xlink:href="#DejaVuSans-68" transform="translate(699.255859 0)"/>
     <use xlink:href="#DejaVuSans-3a" transform="translate(762.634766 0)"/>
    </g>
   </g>
   <g id="text_69">
    <!-- A -->
    <g transform="translate(11.372181 335.700336) scale(0.07 -0.07)">
     <use xlink:href="#DejaVuSans-41"/>
    </g>
   </g>
   <g id="text_70">
    <!-- C -->
    <g transform="translate(36.954416 335.700336) scale(0.07 -0.07)">
     <use xlink:href="#DejaVuSans-43"/>
    </g>
   </g>
   <g id="text_71">
    <!-- E -->
    <g transform="translate(62.818838 335.700336) scale(0.07 -0.07)">
     <use xlink:href="#DejaVuSans-45"/>
    </g>
   </g>
   <g id="text_72">
    <!-- Sample path 0: -->
    <g transform="translate(8.64 323.50438) scale(0.07 -0.07)">
     <defs>
      <path id="DejaVuSans-53" d="M 3425 4513 
L 3425 3897 
Q 3066 4069 2747 4153 
Q 2428 4238 2131 4238 
Q 1616 4238 1336 4038 
Q 1056 3838 1056 3469 
Q 1056 3159 1242 3001 
Q 1428 2844 1947 2747 
L 2328 2669 
Q 3034 2534 3370 2195 
Q 3706 1856 3706 1288 
Q 3706 609 3251 259 
Q 2797 -91 1919 -91 
Q 1588 -91 1214 -16 
Q 841 59 441 206 
L 441 856 
Q 825 641 1194 531 
Q 1563 422 1919 422 
Q 2459 422 2753 634 
Q 3047 847 3047 1241 
Q 3047 1584 2836 1778 
Q 2625 1972 2144 2069 
L 1759 2144 
Q 1053 2284 737 2584 
Q 422 2884 422 3419 
Q 422 4038 858 4394 
Q 1294 4750 2059 4750 
Q 2388 4750 2728 4690 
Q 3069 4631 3425 4513 
z
" transform="scale(0.015625)"/>
     </defs>
     <use xlink:href="#DejaVuSans-53"/>
     <use xlink:href="#DejaVuSans-61" transform="translate(63.476562 0)"/>
     <use xlink:href="#DejaVuSans-6d" transform="translate(124.755859 0)"/>
     <use xlink:href="#DejaVuSans-70" transform="translate(222.167969 0)"/>
     <use xlink:href="#DejaVuSans-6c" transform="translate(285.644531 0)"/>
     <use xlink:href="#DejaVuSans-65" transform="translate(313.427734 0)"/>
     <use xlink:href="#DejaVuSans-20" transform="translate(374.951172 0)"/>
     <use xlink:href="#DejaVuSans-70" transform="translate(406.738281 0)"/>
     <use xlink:href="#DejaVuSans-61" transform="translate(470.214844 0)"/>
     <use xlink:href="#DejaVuSans-74" transform="translate(531.494141 0)"/>
     <use xlink:href="#DejaVuSans-68" transform="translate(570.703125 0)"/>
     <use xlink:href="#DejaVuSans-20" transform="translate(634.082031 0)"/>
     <use xlink:href="#DejaVuSans-30" transform="translate(665.869141 0)"/>
     <use xlink:href="#DejaVuSans-3a" transform="translate(729.492188 0)"/>
    </g>
   </g>
   <g id="legend_1">
    <g id="patch_130">
     <path d="M 782.5 167.763002 
L 838.222188 167.763002 
Q 839.622187 167.763002 839.622187 166.363002 
L 839.622187 115.689564 
Q 839.622187 114.289564 838.222188 114.289564 
L 782.5 114.289564 
Q 781.1 114.289564 781.1 115.689564 
L 781.1 166.363002 
Q 781.1 167.763002 782.5 167.763002 
z
" style="fill: #ffffff; opacity: 0.8; stroke: #cccccc; stroke-linejoin: miter"/>
    </g>
    <g id="patch_131">
     <path d="M 783.9 122.40847 
L 797.9 122.40847 
L 797.9 117.50847 
L 783.9 117.50847 
z
" style="fill: #1f77b4; stroke: #1f77b4; stroke-linejoin: miter"/>
    </g>
    <g id="text_73">
     <!-- A: 25 kbp -->
     <g transform="translate(803.5 122.40847) scale(0.07 -0.07)">
      <use xlink:href="#DejaVuSans-41"/>
      <use xlink:href="#DejaVuSans-3a" transform="translate(66.658203 0)"/>
      <use xlink:href="#DejaVuSans-20" transform="translate(100.349609 0)"/>
      <use xlink:href="#DejaVuSans-32" transform="translate(132.136719 0)"/>
      <use xlink:href="#DejaVuSans-35" transform="translate(195.759766 0)"/>
      <use xlink:href="#DejaVuSans-20" transform="translate(259.382812 0)"/>
      <use xlink:href="#DejaVuSans-6b" transform="translate(291.169922 0)"/>
      <use xlink:href="#DejaVuSans-62" transform="translate(349.080078 0)"/>
      <use xlink:href="#DejaVuSans-70" transform="translate(412.556641 0)"/>
     </g>
    </g>
    <g id="patch_132">
     <path d="M 783.9 132.683158 
L 797.9 132.683158 
L 797.9 127.783158 
L 783.9 127.783158 
z
" style="fill: #2ca02c; stroke: #2ca02c; stroke-linejoin: miter"/>
    </g>
    <g id="text_74">
     <!-- B: 2 kbp -->
     <g transform="translate(803.5 132.683158) scale(0.07 -0.07)">
      <use xlink:href="#DejaVuSans-42"/>
      <use xlink:href="#DejaVuSans-3a" transform="translate(68.603516 0)"/>
      <use xlink:href="#DejaVuSans-20" transform="translate(102.294922 0)"/>
      <use xlink:href="#DejaVuSans-32" transform="translate(134.082031 0)"/>
      <use xlink:href="#DejaVuSans-20" transform="translate(197.705078 0)"/>
      <use xlink:href="#DejaVuSans-6b" transform="translate(229.492188 0)"/>
      <use xlink:href="#DejaVuSans-62" transform="translate(287.402344 0)"/>
      <use xlink:href="#DejaVuSans-70" transform="translate(350.878906 0)"/>
     </g>
    </g>
    <g id="patch_133">
     <path d="M 783.9 142.957845 
L 797.9 142.957845 
L 797.9 138.057845 
L 783.9 138.057845 
z
" style="fill: #9467bd; stroke: #9467bd; stroke-linejoin: miter"/>
    </g>
    <g id="text_75">
     <!-- C: 80 bp -->
     <g transform="translate(803.5 142.957845) scale(0.07 -0.07)">
      <use xlink:href="#DejaVuSans-43"/>
      <use xlink:href="#DejaVuSans-3a" transform="translate(69.824219 0)"/>
      <use xlink:href="#DejaVuSans-20" transform="translate(103.515625 0)"/>
      <use xlink:href="#DejaVuSans-38" transform="translate(135.302734 0)"/>
      <use xlink:href="#DejaVuSans-30" transform="translate(198.925781 0)"/>
      <use xlink:href="#DejaVuSans-20" transform="translate(262.548828 0)"/>
      <use xlink:href="#DejaVuSans-62" transform="translate(294.335938 0)"/>
      <use xlink:href="#DejaVuSans-70" transform="translate(357.8125 0)"/>
     </g>
    </g>
    <g id="patch_134">
     <path d="M 783.9 153.232533 
L 797.9 153.232533 
L 797.9 148.332533 
L 783.9 148.332533 
z
" style="fill: #e377c2; stroke: #e377c2; stroke-linejoin: miter"/>
    </g>
    <g id="text_76">
     <!-- D: 1 kbp -->
     <g transform="translate(803.5 153.232533) scale(0.07 -0.07)">
      <use xlink:href="#DejaVuSans-44"/>
      <use xlink:href="#DejaVuSans-3a" transform="translate(77.001953 0)"/>
      <use xlink:href="#DejaVuSans-20" transform="translate(110.693359 0)"/>
      <use xlink:href="#DejaVuSans-31" transform="translate(142.480469 0)"/>
      <use xlink:href="#DejaVuSans-20" transform="translate(206.103516 0)"/>
      <use xlink:href="#DejaVuSans-6b" transform="translate(237.890625 0)"/>
      <use xlink:href="#DejaVuSans-62" transform="translate(295.800781 0)"/>
      <use xlink:href="#DejaVuSans-70" transform="translate(359.277344 0)"/>
     </g>
    </g>
    <g id="patch_135">
     <path d="M 783.9 163.50722 
L 797.9 163.50722 
L 797.9 158.60722 
L 783.9 158.60722 
z
" style="fill: #9edae5; stroke: #9edae5; stroke-linejoin: miter"/>
    </g>
    <g id="text_77">
     <!-- E: 19 kbp -->
     <g transform="translate(803.5 163.50722) scale(0.07 -0.07)">
      <defs>
       <path id="DejaVuSans-39" d="M 703 97 
L 703 672 
Q 941 559 1184 500 
Q 1428 441 1663 441 
Q 2288 441 2617 861 
Q 2947 1281 2994 2138 
Q 2813 1869 2534 1725 
Q 2256 1581 1919 1581 
Q 1219 1581 811 2004 
Q 403 2428 403 3163 
Q 403 3881 828 4315 
Q 1253 4750 1959 4750 
Q 2769 4750 3195 4129 
Q 3622 3509 3622 2328 
Q 3622 1225 3098 567 
Q 2575 -91 1691 -91 
Q 1453 -91 1209 -44 
Q 966 3 703 97 
z
M 1959 2075 
Q 2384 2075 2632 2365 
Q 2881 2656 2881 3163 
Q 2881 3666 2632 3958 
Q 2384 4250 1959 4250 
Q 1534 4250 1286 3958 
Q 1038 3666 1038 3163 
Q 1038 2656 1286 2365 
Q 1534 2075 1959 2075 
z
" transform="scale(0.015625)"/>
      </defs>
      <use xlink:href="#DejaVuSans-45"/>
      <use xlink:href="#DejaVuSans-3a" transform="translate(63.183594 0)"/>
      <use xlink:href="#DejaVuSans-20" transform="translate(96.875 0)"/>
      <use xlink:href="#DejaVuSans-31" transform="translate(128.662109 0)"/>
      <use xlink:href="#DejaVuSans-39" transform="translate(192.285156 0)"/>
      <use xlink:href="#DejaVuSans-20" transform="translate(255.908203 0)"/>
      <use xlink:href="#DejaVuSans-6b" transform="translate(287.695312 0)"/>
      <use xlink:href="#DejaVuSans-62" transform="translate(345.605469 0)"/>
      <use xlink:href="#DejaVuSans-70" transform="translate(409.082031 0)"/>
     </g>
    </g>
   </g>
  </g>
  <g id="text_78">
   <!-- NA12891 -->
   <g transform="translate(404.319375 16.318125) scale(0.12 -0.12)">
    <defs>
     <path id="DejaVuSans-4e" d="M 628 4666 
L 1478 4666 
L 3547 763 
L 3547 4666 
L 4159 4666 
L 4159 0 
L 3309 0 
L 1241 3903 
L 1241 0 
L 628 0 
L 628 4666 
z
" transform="scale(0.015625)"/>
    </defs>
    <use xlink:href="#DejaVuSans-4e"/>
    <use xlink:href="#DejaVuSans-41" transform="translate(74.804688 0)"/>
    <use xlink:href="#DejaVuSans-31" transform="translate(143.212891 0)"/>
    <use xlink:href="#DejaVuSans-32" transform="translate(206.835938 0)"/>
    <use xlink:href="#DejaVuSans-38" transform="translate(270.458984 0)"/>
    <use xlink:href="#DejaVuSans-39" transform="translate(334.082031 0)"/>
    <use xlink:href="#DejaVuSans-31" transform="translate(397.705078 0)"/>
   </g>
  </g>
 </g>
 <defs>
  <clipPath id="p28a79ac068">
   <rect x="8.64" y="36" width="768.96" height="202.753442"/>
  </clipPath>
  <clipPath id="p5ad265272e">
   <rect x="8.64" y="287.008761" width="768.96" height="72.991239"/>
  </clipPath>
 </defs>
</svg>
