<svg width="4308" height="1320" xmlns="http://www.w3.org/2000/svg" xmlns:xlink="http://www.w3.org/1999/xlink" xml:space="preserve" overflow="hidden"><g transform="translate(-64 -18)"><g><path d="M275.5 166.5 912.166 166.5 978.5 232.834 978.5 564.5 275.5 564.5Z" stroke="#156082" stroke-width="6.875" stroke-linecap="butt" stroke-linejoin="miter" stroke-miterlimit="8" stroke-opacity="1" fill="none" fill-rule="evenodd"/><text fill="#000000" fill-opacity="1" font-family="Aptos,Aptos_MSFontService,sans-serif" font-style="normal" font-variant="normal" font-weight="400" font-stretch="normal" font-size="83" text-anchor="start" direction="ltr" writing-mode="lr-tb" unicode-bidi="normal" text-decoration="none" transform="matrix(1 0 0 1 334.822 309)">Phased/aligned </text><text fill="#000000" fill-opacity="1" font-family="Aptos,Aptos_MSFontService,sans-serif" font-style="normal" font-variant="normal" font-weight="400" font-stretch="normal" font-size="83" text-anchor="start" direction="ltr" writing-mode="lr-tb" unicode-bidi="normal" text-decoration="none" transform="matrix(1 0 0 1 497.851 408)">BAM +</text><text fill="#000000" fill-opacity="1" font-family="Aptos,Aptos_MSFontService,sans-serif" font-style="normal" font-variant="normal" font-weight="400" font-stretch="normal" font-size="83" text-anchor="start" direction="ltr" writing-mode="lr-tb" unicode-bidi="normal" text-decoration="none" transform="matrix(1 0 0 1 418.88 507)">VCF of SVs</text><path d="M1879.5 747.5 2457 747.5 2523.5 814.002 2523.5 1146.5 1879.5 1146.5Z" stroke="#00B050" stroke-width="6.875" stroke-linecap="butt" stroke-linejoin="miter" stroke-miterlimit="8" stroke-opacity="1" fill="none" fill-rule="evenodd"/><text fill="#000000" fill-opacity="1" font-family="Aptos,Aptos_MSFontService,sans-serif" font-style="normal" font-variant="normal" font-weight="400" font-stretch="normal" font-size="83" text-anchor="start" direction="ltr" writing-mode="lr-tb" unicode-bidi="normal" text-decoration="none" transform="matrix(1 0 0 1 1966.68 940)">Write</text><text fill="#000000" fill-opacity="1" font-family="Aptos,Aptos_MSFontService,sans-serif" font-style="normal" font-variant="normal" font-weight="400" font-stretch="normal" font-size="83" text-anchor="start" direction="ltr" writing-mode="lr-tb" unicode-bidi="normal" text-decoration="none" transform="matrix(1 0 0 1 2173.18 940)">out</text><text fill="#000000" fill-opacity="1" font-family="Aptos,Aptos_MSFontService,sans-serif" font-style="normal" font-variant="normal" font-weight="400" font-stretch="normal" font-size="83" text-anchor="start" direction="ltr" writing-mode="lr-tb" unicode-bidi="normal" text-decoration="none" transform="matrix(1 0 0 1 2307.82 940)">SV </text><text fill="#000000" fill-opacity="1" font-family="Aptos,Aptos_MSFontService,sans-serif" font-style="normal" font-variant="normal" font-weight="400" font-stretch="normal" font-size="83" text-anchor="start" direction="ltr" writing-mode="lr-tb" unicode-bidi="normal" text-decoration="none" transform="matrix(1 0 0 1 2088.02 1039)">JSON</text><text fill="#000000" fill-opacity="1" font-family="Aptos,Aptos_MSFontService,sans-serif" font-style="normal" font-variant="normal" font-weight="400" font-stretch="normal" font-size="83" text-anchor="start" direction="ltr" writing-mode="lr-tb" unicode-bidi="normal" text-decoration="none" transform="matrix(1 0 0 1 630.784 125)">A</text><text fill="#000000" fill-opacity="1" font-family="Aptos,Aptos_MSFontService,sans-serif" font-style="normal" font-variant="normal" font-weight="400" font-stretch="normal" font-size="83" text-anchor="start" direction="ltr" writing-mode="lr-tb" unicode-bidi="normal" text-decoration="none" transform="matrix(1 0 0 1 1423.32 125)">B</text><text fill="#000000" fill-opacity="1" font-family="Aptos,Aptos_MSFontService,sans-serif" font-style="normal" font-variant="normal" font-weight="400" font-stretch="normal" font-size="83" text-anchor="start" direction="ltr" writing-mode="lr-tb" unicode-bidi="normal" text-decoration="none" transform="matrix(1 0 0 1 2209.74 125)">C</text><text fill="#000000" fill-opacity="1" font-family="Aptos,Aptos_MSFontService,sans-serif" font-style="normal" font-variant="normal" font-weight="400" font-stretch="normal" font-size="83" text-anchor="start" direction="ltr" writing-mode="lr-tb" unicode-bidi="normal" text-decoration="none" transform="matrix(1 0 0 1 3059.05 125)">D</text><text fill="#000000" fill-opacity="1" font-family="Aptos,Aptos_MSFontService,sans-serif" font-style="normal" font-variant="normal" font-weight="400" font-stretch="normal" font-size="83" text-anchor="start" direction="ltr" writing-mode="lr-tb" unicode-bidi="normal" text-decoration="none" transform="matrix(1 0 0 1 537.651 1263)">F</text><text fill="#000000" fill-opacity="1" font-family="Aptos,Aptos_MSFontService,sans-serif" font-style="normal" font-variant="normal" font-weight="400" font-stretch="normal" font-size="83" text-anchor="start" direction="ltr" writing-mode="lr-tb" unicode-bidi="normal" text-decoration="none" transform="matrix(1 0 0 1 1332.53 1263)">G</text><text fill="#000000" fill-opacity="1" font-family="Aptos,Aptos_MSFontService,sans-serif" font-style="normal" font-variant="normal" font-weight="400" font-stretch="normal" font-size="83" text-anchor="start" direction="ltr" writing-mode="lr-tb" unicode-bidi="normal" text-decoration="none" transform="matrix(1 0 0 1 2181.84 1263)">H</text><path d="M1148 229.501C1148 194.431 1176.43 166 1211.5 166L1727.5 166C1762.57 166 1791 194.431 1791 229.501L1791 483.499C1791 518.569 1762.57 547 1727.5 547L1211.5 547C1176.43 547 1148 518.569 1148 483.499Z" fill="#86D5F9" fill-rule="evenodd" fill-opacity="1"/><text fill="#000000" fill-opacity="1" font-family="Aptos,Aptos_MSFontService,sans-serif" font-style="normal" font-variant="normal" font-weight="400" font-stretch="normal" font-size="83" text-anchor="start" direction="ltr" writing-mode="lr-tb" unicode-bidi="normal" text-decoration="none" transform="matrix(1 0 0 1 1236.37 333)">Extract break </text><text fill="#000000" fill-opacity="1" font-family="Aptos,Aptos_MSFontService,sans-serif" font-style="normal" font-variant="normal" font-weight="400" font-stretch="normal" font-size="83" text-anchor="start" direction="ltr" writing-mode="lr-tb" unicode-bidi="normal" text-decoration="none" transform="matrix(1 0 0 1 1304.51 432)">locations</text><path d="M1932 230.501C1932 195.431 1960.43 167 1995.5 167L2511.5 167C2546.57 167 2575 195.431 2575 230.501L2575 484.499C2575 519.569 2546.57 548 2511.5 548L1995.5 548C1960.43 548 1932 519.569 1932 484.499Z" fill="#FFB37F" fill-rule="evenodd" fill-opacity="1"/><text fill="#000000" fill-opacity="1" font-family="Aptos,Aptos_MSFontService,sans-serif" font-style="normal" font-variant="normal" font-weight="400" font-stretch="normal" font-size="83" text-anchor="start" direction="ltr" writing-mode="lr-tb" unicode-bidi="normal" text-decoration="none" transform="matrix(1 0 0 1 2003.47 334)">Connect pairs </text><text fill="#000000" fill-opacity="1" font-family="Aptos,Aptos_MSFontService,sans-serif" font-style="normal" font-variant="normal" font-weight="400" font-stretch="normal" font-size="83" text-anchor="start" direction="ltr" writing-mode="lr-tb" unicode-bidi="normal" text-decoration="none" transform="matrix(1 0 0 1 2090.69 433)">of breaks</text><path d="M2756 229.501C2756 194.431 2784.43 166 2819.5 166L3336.5 166C3371.57 166 3400 194.431 3400 229.501L3400 483.499C3400 518.569 3371.57 547 3336.5 547L2819.5 547C2784.43 547 2756 518.569 2756 483.499Z" fill="#7DE8EA" fill-rule="evenodd" fill-opacity="1"/><text fill="#000000" fill-opacity="1" font-family="Aptos,Aptos_MSFontService,sans-serif" font-style="normal" font-variant="normal" font-weight="400" font-stretch="normal" font-size="83" text-anchor="start" direction="ltr" writing-mode="lr-tb" unicode-bidi="normal" text-decoration="none" transform="matrix(1 0 0 1 2827.85 333)">Connect pairs </text><text fill="#000000" fill-opacity="1" font-family="Aptos,Aptos_MSFontService,sans-serif" font-style="normal" font-variant="normal" font-weight="400" font-stretch="normal" font-size="83" text-anchor="start" direction="ltr" writing-mode="lr-tb" unicode-bidi="normal" text-decoration="none" transform="matrix(1 0 0 1 2838.34 432)">into networks</text><path d="M272 828.501C272 793.43 300.43 765 335.501 765L852.499 765C887.57 765 916 793.43 916 828.501L916 1082.5C916 1117.57 887.57 1146 852.499 1146L335.501 1146C300.43 1146 272 1117.57 272 1082.5Z" fill="#7BDB75" fill-rule="evenodd" fill-opacity="1"/><text fill="#000000" fill-opacity="1" font-family="Aptos,Aptos_MSFontService,sans-serif" font-style="normal" font-variant="normal" font-weight="400" font-stretch="normal" font-size="83" text-anchor="start" direction="ltr" writing-mode="lr-tb" unicode-bidi="normal" text-decoration="none" transform="matrix(1 0 0 1 336.724 932)">Add alignment </text><text fill="#000000" fill-opacity="1" font-family="Aptos,Aptos_MSFontService,sans-serif" font-style="normal" font-variant="normal" font-weight="400" font-stretch="normal" font-size="83" text-anchor="start" direction="ltr" writing-mode="lr-tb" unicode-bidi="normal" text-decoration="none" transform="matrix(1 0 0 1 454.744 1031)">support</text><path d="M1061 828.501C1061 793.43 1089.43 765 1124.5 765L1640.5 765C1675.57 765 1704 793.43 1704 828.501L1704 1082.5C1704 1117.57 1675.57 1146 1640.5 1146L1124.5 1146C1089.43 1146 1061 1117.57 1061 1082.5Z" fill="#FFC000" fill-rule="evenodd" fill-opacity="1"/><text fill="#000000" fill-opacity="1" font-family="Aptos,Aptos_MSFontService,sans-serif" font-style="normal" font-variant="normal" font-weight="400" font-stretch="normal" font-size="83" text-anchor="start" direction="ltr" writing-mode="lr-tb" unicode-bidi="normal" text-decoration="none" transform="matrix(1 0 0 1 1165.89 982)">Filter blocks</text><path d="M1022 369.25 1087.5 369.25 1087.5 356 1114 382.5 1087.5 409 1087.5 395.75 1022 395.75Z" fill="#404040" fill-rule="evenodd" fill-opacity="1"/><path d="M1823 369.25 1888.5 369.25 1888.5 356 1915 382.5 1888.5 409 1888.5 395.75 1823 395.75Z" fill="#404040" fill-rule="evenodd" fill-opacity="1"/><path d="M947 932.25 1012.5 932.25 1012.5 919 1039 945.5 1012.5 972 1012.5 958.75 947 958.75Z" fill="#404040" fill-rule="evenodd" fill-opacity="1"/><path d="M2635 369.25 2699.5 369.25 2699.5 356 2726 382.5 2699.5 409 2699.5 395.75 2635 395.75Z" fill="#404040" fill-rule="evenodd" fill-opacity="1"/><path d="M1759 947.25 1823.5 947.25 1823.5 934 1850 960.5 1823.5 987 1823.5 973.75 1759 973.75Z" fill="#404040" fill-rule="evenodd" fill-opacity="1"/><path d="M0 1913 0 120.332C-3.04439e-14 53.8746 53.8748-1.52219e-14 120.333-1.52219e-14L238.253 0C304.711-1.52219e-14 358.586 53.8746 358.586 120.332L368 120.332 345.648 142.634 323.296 120.332 332.711 120.332C332.711 68.1649 290.421 25.8749 238.253 25.8749L120.333 25.8749C68.1651 25.8749 25.8749 68.1649 25.8749 120.332L25.8749 1913Z" stroke="#404040" stroke-width="6.875" stroke-linecap="butt" stroke-linejoin="miter" stroke-miterlimit="8" stroke-opacity="1" fill="#404040" fill-rule="evenodd" fill-opacity="1" transform="matrix(1.83697e-16 1 1 -1.83697e-16 70.5 609.5)"/><path d="M4210.5 324.5 4259.74 324.5C4318.15 324.5 4365.5 371.849 4365.5 430.256L4365.5 530.274C4365.5 588.682 4318.15 636.03 4259.74 636.03L4210.5 636.03 4210.5 636.5 4210.5 623.629 4210.5 610.758 4210.5 611.227 4259.74 611.227C4304.45 611.227 4340.7 574.983 4340.7 530.273L4340.7 430.256C4340.7 385.547 4304.45 349.303 4259.74 349.303L4210.5 349.303Z" stroke="#404040" stroke-width="6.875" stroke-linecap="butt" stroke-linejoin="miter" stroke-miterlimit="8" stroke-opacity="1" fill="#404040" fill-rule="evenodd" fill-opacity="1"/><path d="M3461 369.25 3525.5 369.25 3525.5 356 3552 382.5 3525.5 409 3525.5 395.75 3461 395.75Z" fill="#404040" fill-rule="evenodd" fill-opacity="1"/><path d="M3594 228.501C3594 193.43 3622.43 165 3657.5 165L4173.5 165C4208.57 165 4237 193.43 4237 228.501L4237 482.499C4237 517.569 4208.57 546 4173.5 546L3657.5 546C3622.43 546 3594 517.569 3594 482.499Z" fill="#F7ADF3" fill-rule="evenodd" fill-opacity="1"/><text fill="#000000" fill-opacity="1" font-family="Aptos,Aptos_MSFontService,sans-serif" font-style="normal" font-variant="normal" font-weight="400" font-stretch="normal" font-size="83" text-anchor="start" direction="ltr" writing-mode="lr-tb" unicode-bidi="normal" text-decoration="none" transform="matrix(1 0 0 1 3782.5 332)">Identify </text><text fill="#000000" fill-opacity="1" font-family="Aptos,Aptos_MSFontService,sans-serif" font-style="normal" font-variant="normal" font-weight="400" font-stretch="normal" font-size="83" text-anchor="start" direction="ltr" writing-mode="lr-tb" unicode-bidi="normal" text-decoration="none" transform="matrix(1 0 0 1 3661.18 431)">network starts</text><text fill="#000000" fill-opacity="1" font-family="Aptos,Aptos_MSFontService,sans-serif" font-style="normal" font-variant="normal" font-weight="400" font-stretch="normal" font-size="83" text-anchor="start" direction="ltr" writing-mode="lr-tb" unicode-bidi="normal" text-decoration="none" transform="matrix(1 0 0 1 3909.56 124)">E</text><rect x="1579" y="606" width="2631" height="33" fill="#404040" fill-opacity="1"/><path d="M2775 806.501C2775 771.43 2803.43 743 2838.5 743L3354.5 743C3389.57 743 3418 771.43 3418 806.501L3418 1060.5C3418 1095.57 3389.57 1124 3354.5 1124L2838.5 1124C2803.43 1124 2775 1095.57 2775 1060.5Z" fill="#CBB3FB" fill-rule="evenodd" fill-opacity="1"/><text fill="#000000" fill-opacity="1" font-family="Aptos,Aptos_MSFontService,sans-serif" font-style="normal" font-variant="normal" font-weight="400" font-stretch="normal" font-size="83" text-anchor="start" direction="ltr" writing-mode="lr-tb" unicode-bidi="normal" text-decoration="none" transform="matrix(1 0 0 1 2877.24 911)">Filte</text><text fill="#000000" fill-opacity="1" font-family="Aptos,Aptos_MSFontService,sans-serif" font-style="normal" font-variant="normal" font-weight="400" font-stretch="normal" font-size="83" text-anchor="start" direction="ltr" writing-mode="lr-tb" unicode-bidi="normal" text-decoration="none" transform="matrix(1 0 0 1 3030.27 911)">r</text><text fill="#000000" fill-opacity="1" font-family="Aptos,Aptos_MSFontService,sans-serif" font-style="normal" font-variant="normal" font-weight="400" font-stretch="normal" font-size="83" text-anchor="start" direction="ltr" writing-mode="lr-tb" unicode-bidi="normal" text-decoration="none" transform="matrix(1 0 0 1 3074.39 911)">simple </text><text fill="#000000" fill-opacity="1" font-family="Aptos,Aptos_MSFontService,sans-serif" font-style="normal" font-variant="normal" font-weight="400" font-stretch="normal" font-size="83" text-anchor="start" direction="ltr" writing-mode="lr-tb" unicode-bidi="normal" text-decoration="none" transform="matrix(1 0 0 1 2877.9 1010)">SV networks</text><path d="M2611 947.5 2676 947.5 2676 934 2703 961 2676 988 2676 974.5 2611 974.5Z" fill="#404040" fill-rule="evenodd" fill-opacity="1"/><text fill="#000000" fill-opacity="1" font-family="Aptos,Aptos_MSFontService,sans-serif" font-style="normal" font-variant="normal" font-weight="400" font-stretch="normal" font-size="83" text-anchor="start" direction="ltr" writing-mode="lr-tb" unicode-bidi="normal" text-decoration="none" transform="matrix(1 0 0 1 3077.36 1263)">I</text><path d="M3474 941.25 3538.5 941.25 3538.5 928 3565 954.5 3538.5 981 3538.5 967.75 3474 967.75Z" fill="#404040" fill-rule="evenodd" fill-opacity="1"/><text fill="#000000" fill-opacity="1" font-family="Aptos,Aptos_MSFontService,sans-serif" font-style="normal" font-variant="normal" font-weight="400" font-stretch="normal" font-size="83" text-anchor="start" direction="ltr" writing-mode="lr-tb" unicode-bidi="normal" text-decoration="none" transform="matrix(1 0 0 1 3972.89 1257)">J</text><path d="M3618.5 746.5 4196.17 746.5 4262.5 812.835 4262.5 1144.5 3618.5 1144.5Z" stroke="#00B050" stroke-width="6.875" stroke-linecap="butt" stroke-linejoin="miter" stroke-miterlimit="8" stroke-opacity="1" fill="none" fill-rule="evenodd"/><text fill="#000000" fill-opacity="1" font-family="Aptos,Aptos_MSFontService,sans-serif" font-style="normal" font-variant="normal" font-weight="400" font-stretch="normal" font-size="83" text-anchor="start" direction="ltr" writing-mode="lr-tb" unicode-bidi="normal" text-decoration="none" transform="matrix(1 0 0 1 3761.02 889)">Write out </text><text fill="#000000" fill-opacity="1" font-family="Aptos,Aptos_MSFontService,sans-serif" font-style="normal" font-variant="normal" font-weight="400" font-stretch="normal" font-size="83" text-anchor="start" direction="ltr" writing-mode="lr-tb" unicode-bidi="normal" text-decoration="none" transform="matrix(1 0 0 1 3759.71 988)">images &amp; </text><text fill="#000000" fill-opacity="1" font-family="Aptos,Aptos_MSFontService,sans-serif" font-style="normal" font-variant="normal" font-weight="400" font-stretch="normal" font-size="83" text-anchor="start" direction="ltr" writing-mode="lr-tb" unicode-bidi="normal" text-decoration="none" transform="matrix(1 0 0 1 3747.89 1087)">HTML site </text></g></g></svg>