<svg width="2411" height="2420" xmlns="http://www.w3.org/2000/svg" xmlns:xlink="http://www.w3.org/1999/xlink" xml:space="preserve" overflow="hidden"><defs><linearGradient x1="2200" y1="77" x2="2200" y2="2400" gradientUnits="userSpaceOnUse" spreadMethod="reflect" id="fill0"><stop offset="0" stop-color="#32A4D0" stop-opacity="1"/><stop offset="0.2" stop-color="#32A4D0" stop-opacity="1"/><stop offset="0.51" stop-color="#2ECFD5" stop-opacity="1"/><stop offset="0.81" stop-color="#32A4D0" stop-opacity="1"/><stop offset="1" stop-color="#32A4D0" stop-opacity="1"/></linearGradient></defs><g transform="translate(-994 -27)"><g><path d="M1045 1238.5C1045 597.021 1562.11 77 2200 77 2837.89 77 3355 597.021 3355 1238.5 3355 1879.98 2837.89 2400 2200 2400 1562.11 2400 1045 1879.98 1045 1238.5Z" fill="url(#fill0)" fill-rule="evenodd"/><path d="M1180 1755.5C1279.65 1628.12 1379.29 1500.74 1486.33 1504.14 1593.37 1507.54 1713.8 1786.36 1822.25 1775.89 1930.69 1765.41 1996.54 1433.66 2137.03 1441.3 2277.52 1448.94 2507.45 1833.35 2665.19 1821.74 2822.94 1810.14 2974.69 1407.05 3083.5 1371.66 3192.3 1336.28 3255.15 1472.86 3318 1609.44" stroke="#EDFCFB" stroke-width="64.1667" stroke-linecap="butt" stroke-linejoin="miter" stroke-miterlimit="8" stroke-opacity="1" fill="none" fill-rule="evenodd"/><path d="M1045 1280.98C1152.66 1144.94 1260.33 1008.9 1375.98 1012.53 1491.63 1016.16 1621.74 1313.94 1738.91 1302.75 1856.09 1291.56 1927.23 937.255 2079.02 945.417 2230.82 953.58 2479.24 1364.12 2649.67 1351.73 2820.11 1339.33 2984.08 908.838 3101.63 871.049 3219.18 833.26 3287.09 979.125 3355 1124.99" stroke="#EDFCFB" stroke-width="64.1667" stroke-linecap="butt" stroke-linejoin="miter" stroke-miterlimit="8" stroke-opacity="1" fill="none" fill-rule="evenodd"/><path d="M1417 2038.35C1440.91 1981.69 1464.82 1925.03 1534.58 1945.86 1604.35 1966.7 1737.22 2159.09 1835.6 2163.37 1933.98 2167.65 1990.81 1971.55 2124.85 1971.55 2258.9 1971.55 2483.88 2176.79 2639.87 2163.37 2795.87 2149.95 2972.64 1934.73 3060.82 1891.06 3149.01 1847.39 3159.01 1874.36 3169 1901.34" stroke="#EDFCFB" stroke-width="64.1667" stroke-linecap="butt" stroke-linejoin="miter" stroke-miterlimit="8" stroke-opacity="1" fill="none" fill-rule="evenodd"/><path d="M1362 482.341C1472.49 607.079 1582.98 731.817 1690.34 707.864 1797.69 683.911 1836.96 320.937 2006.14 338.625 2175.32 356.313 2518.28 779.353 2705.42 813.993 2892.56 848.632 3010.78 697.546 3129 546.46" stroke="#EDFCFB" stroke-width="64.1667" stroke-linecap="butt" stroke-linejoin="miter" stroke-miterlimit="8" stroke-opacity="1" fill="none" fill-rule="evenodd"/><path d="M996 1237.5C996 570.064 1535.05 28.9999 2200 28.9999 2864.95 28.9999 3404 570.064 3404 1237.5 3404 1904.94 2864.95 2446 2200 2446 1535.05 2446 996 1904.94 996 1237.5ZM1094 1237.5C1094 1850.81 1589.17 2348 2200 2348 2810.82 2348 3305.99 1850.81 3305.99 1237.5 3305.99 624.19 2810.82 127.004 2200 127.004 1589.17 127.004 1094 624.19 1094 1237.5Z" fill="#FFFFFF" fill-rule="evenodd" fill-opacity="1"/></g></g></svg>