<svg width="2369" height="2392" xmlns="http://www.w3.org/2000/svg" xmlns:xlink="http://www.w3.org/1999/xlink" xml:space="preserve" overflow="hidden"><defs><linearGradient x1="2200" y1="77" x2="2200" y2="2400" gradientUnits="userSpaceOnUse" spreadMethod="reflect" id="fill0"><stop offset="0" stop-color="#32A4D0" stop-opacity="1"/><stop offset="0.2" stop-color="#32A4D0" stop-opacity="1"/><stop offset="0.51" stop-color="#2ECFD5" stop-opacity="1"/><stop offset="0.81" stop-color="#32A4D0" stop-opacity="1"/><stop offset="1" stop-color="#32A4D0" stop-opacity="1"/></linearGradient></defs><g transform="translate(-1022 -55)"><g><path d="M1045 1238.5C1045 597.021 1562.11 77 2200 77 2837.89 77 3355 597.021 3355 1238.5 3355 1879.98 2837.89 2400 2200 2400 1562.11 2400 1045 1879.98 1045 1238.5Z" fill="url(#fill0)" fill-rule="evenodd"/><path d="M1086 1581.23C1191.75 1415.03 1297.5 1248.82 1411.1 1253.25 1524.7 1257.68 1652.5 1621.49 1767.6 1607.83 1882.69 1594.16 1952.57 1161.28 2101.67 1171.25 2250.77 1181.22 2494.78 1682.81 2662.19 1667.66 2829.6 1652.52 2990.66 1126.56 3106.13 1080.39 3221.59 1034.22 3288.3 1212.43 3355 1390.65" stroke="#EDFCFB" stroke-width="27.5" stroke-linecap="butt" stroke-linejoin="miter" stroke-miterlimit="8" stroke-opacity="1" fill="none" fill-rule="evenodd"/><path d="M1223 1875.5C1318.92 1748.12 1414.84 1620.74 1517.87 1624.14 1620.91 1627.54 1736.82 1906.36 1841.21 1895.89 1945.6 1885.41 2008.99 1553.66 2144.22 1561.3 2279.45 1568.94 2500.78 1953.35 2652.62 1941.74 2804.46 1930.14 2950.54 1527.05 3055.27 1491.66 3160 1456.28 3220.5 1592.86 3281 1729.44" stroke="#EDFCFB" stroke-width="27.5" stroke-linecap="butt" stroke-linejoin="miter" stroke-miterlimit="8" stroke-opacity="1" fill="none" fill-rule="evenodd"/><path d="M1036 1214.13C1143.66 1078.37 1251.33 942.607 1366.98 946.228 1482.63 949.848 1612.74 1247.01 1729.91 1235.85 1847.09 1224.69 1918.23 871.107 2070.02 879.252 2221.82 887.398 2470.24 1297.09 2640.67 1284.73 2811.11 1272.36 2975.08 842.748 3092.63 805.036 3210.18 767.325 3278.09 912.891 3346 1058.46" stroke="#EDFCFB" stroke-width="27.5" stroke-linecap="butt" stroke-linejoin="miter" stroke-miterlimit="8" stroke-opacity="1" fill="none" fill-rule="evenodd"/><path d="M1463 2116.42C1485.74 2043.1 1508.47 1969.79 1574.81 1996.75 1641.15 2023.71 1767.5 2272.64 1861.05 2278.18 1954.6 2283.72 2008.64 2029.99 2136.11 2029.99 2263.57 2029.99 2477.51 2295.54 2625.85 2278.18 2774.18 2260.83 2942.27 1982.35 3026.13 1925.84 3109.99 1869.33 3119.5 1904.23 3129 1939.13" stroke="#EDFCFB" stroke-width="27.5" stroke-linecap="butt" stroke-linejoin="miter" stroke-miterlimit="8" stroke-opacity="1" fill="none" fill-rule="evenodd"/><path d="M1414 389.341C1516.49 514.079 1618.97 638.816 1718.55 614.864 1818.13 590.911 1854.55 227.938 2011.48 245.626 2168.41 263.314 2486.52 686.353 2660.1 720.992 2833.69 755.632 2943.35 604.546 3053 453.46" stroke="#EDFCFB" stroke-width="27.5" stroke-linecap="butt" stroke-linejoin="miter" stroke-miterlimit="8" stroke-opacity="1" fill="none" fill-rule="evenodd"/><path d="M1104 876.531C1176.46 755.557 1248.92 634.584 1352.12 648.251 1455.31 661.918 1614.02 975.526 1723.18 958.535 1832.33 941.543 1859.9 533.372 2007.06 546.3 2154.22 559.229 2453 998.428 2606.12 1036.11 2759.24 1073.78 2821.45 827.033 2925.76 772.364 3030.08 717.695 3131.04 712.893 3232 708.091" stroke="#EDFCFB" stroke-width="27.5" stroke-linecap="butt" stroke-linejoin="miter" stroke-miterlimit="8" stroke-opacity="1" fill="none" fill-rule="evenodd"/><path d="M1036 1252C1036 593.124 1563.18 59.0001 2213.49 59.0001 2863.81 59.0001 3390.99 593.124 3390.99 1252 3390.99 1910.88 2863.81 2445 2213.49 2445 1563.18 2445 1036 1910.88 1036 1252ZM1077.64 1252C1077.64 1887.88 1586.18 2403.36 2213.49 2403.36 2840.81 2403.36 3349.35 1887.88 3349.35 1252 3349.35 616.119 2840.81 100.635 2213.49 100.635 1586.18 100.635 1077.64 616.119 1077.64 1252Z" fill="#FFFFFF" fill-rule="evenodd" fill-opacity="1"/></g></g></svg>