<svg width="2461" height="2475" xmlns="http://www.w3.org/2000/svg" xmlns:xlink="http://www.w3.org/1999/xlink" xml:space="preserve" overflow="hidden"><defs><clipPath id="clip0"><rect x="971" y="0" width="2461" height="2475"/></clipPath><clipPath id="clip1"><rect x="971" y="0" width="2461" height="2475"/></clipPath><linearGradient x1="3334" y1="1238" x2="1067" y2="1238" gradientUnits="userSpaceOnUse" spreadMethod="reflect" id="fill2"><stop offset="0" stop-color="#32A4D0" stop-opacity="1"/><stop offset="0.2" stop-color="#32A4D0" stop-opacity="1"/><stop offset="0.51" stop-color="#2ECFD5" stop-opacity="1"/><stop offset="0.81" stop-color="#32A4D0" stop-opacity="1"/><stop offset="1" stop-color="#32A4D0" stop-opacity="1"/></linearGradient></defs><g clip-path="url(#clip0)" transform="translate(-971 0)"><g clip-path="url(#clip1)"><path d="M1067 1238C1067 608.395 1574.49 98 2200.5 98 2826.51 98 3334 608.395 3334 1238 3334 1867.6 2826.51 2378 2200.5 2378 1574.49 2378 1067 1867.6 1067 1238Z" fill="url(#fill2)" fill-rule="evenodd"/><path d="M1200 1745.67C1297.74 1620.52 1395.47 1495.38 1500.46 1498.72 1605.45 1502.05 1723.56 1775.98 1829.93 1765.69 1936.3 1755.4 2000.88 1429.47 2138.68 1436.98 2276.47 1444.49 2501.99 1822.15 2656.71 1810.75 2811.43 1799.34 2960.28 1403.33 3066.99 1368.56 3173.71 1333.8 3235.35 1467.99 3297 1602.17" stroke="#EDFCFB" stroke-width="91.6667" stroke-linecap="butt" stroke-linejoin="miter" stroke-miterlimit="8" stroke-opacity="1" fill="none" fill-rule="evenodd"/><path d="M1067 1279.44C1172.66 1146.2 1278.32 1012.95 1391.82 1016.5 1505.32 1020.05 1633 1311.72 1748 1300.76 1862.99 1289.81 1932.81 942.771 2081.77 950.766 2230.74 958.761 2474.54 1360.87 2641.8 1348.73 2809.07 1336.59 2969.98 914.938 3085.35 877.925 3200.71 840.912 3267.36 983.782 3334 1126.65" stroke="#EDFCFB" stroke-width="91.6667" stroke-linecap="butt" stroke-linejoin="miter" stroke-miterlimit="8" stroke-opacity="1" fill="none" fill-rule="evenodd"/><path d="M1422 2019.5C1444.75 1962.46 1467.5 1905.41 1533.88 1926.39 1600.26 1947.37 1726.68 2141.06 1820.29 2145.37 1913.9 2149.68 1967.97 1952.25 2095.51 1952.25 2223.06 1952.25 2437.12 2158.87 2585.54 2145.37 2733.97 2131.86 2902.16 1915.18 2986.07 1871.22 3069.98 1827.25 3079.49 1854.4 3089 1881.56" stroke="#EDFCFB" stroke-width="91.6667" stroke-linecap="butt" stroke-linejoin="miter" stroke-miterlimit="8" stroke-opacity="1" fill="none" fill-rule="evenodd"/><path d="M1378 495.94C1486.49 618.603 1594.98 741.267 1700.39 717.712 1805.8 694.158 1844.36 337.221 2010.48 354.615 2176.59 372.009 2513.34 788.013 2697.09 822.076 2880.85 856.139 2996.92 707.566 3113 558.993" stroke="#EDFCFB" stroke-width="91.6667" stroke-linecap="butt" stroke-linejoin="miter" stroke-miterlimit="8" stroke-opacity="1" fill="none" fill-rule="evenodd"/><path d="M976 1237.5C976 554.048 1525.35-1.5755e-13 2203-1.5755e-13 2880.66-3.15101e-13 3430 554.048 3430 1237.5 3430 1920.95 2880.66 2475 2203 2475 1525.35 2475 976 1920.95 976 1237.5ZM1130.21 1237.5C1130.21 1835.79 1610.51 2320.79 2203 2320.79 2795.48 2320.79 3275.79 1835.79 3275.79 1237.5 3275.79 639.215 2795.48 154.208 2203 154.208 1610.51 154.208 1130.21 639.215 1130.21 1237.5Z" fill="#FFFFFF" fill-rule="evenodd" fill-opacity="1"/></g></g></svg>